<svg width="700" height="200" viewbox = "0 0 700 200"  xmlns="http://www.w3.org/2000/svg">
<!--<json>{
  "glyph": "0336,0331,0337,0332,0332,0332,0332,0333,0225,",
  "x0": 350,
  "y0": 100,
  "unit": 108.90000000000003,
  "width": 700,
  "height": 200,
  "style": {
    "color0": "black",
    "fill0": "black",
    "line0": 1,
    "color1": "black",
    "fill1": "black",
    "line1": 3,
    "color2": "red",
    "fill2": "red",
    "line2": 1,
    "color3": "#FF7900",
    "fill3": "#FF7900",
    "line3": 1,
    "color4": "yellow",
    "fill4": "yellow",
    "line4": 1,
    "color5": "green",
    "fill5": "green",
    "line5": 1,
    "color6": "blue",
    "fill6": "blue",
    "line6": 1,
    "color7": "purple",
    "fill7": "purple",
    "line7": 1
  },
  "shapes": [
    "0220:0333,0342,",
    "0221:0316,0336,0313,0336,0220,0220,0220,0220,0220,0337,0342,0336,0220,0220,0220,0220,0333,0337,0342,0336,0337,0316,0337,0313,",
    "0222:0333,0342,0336,0332,0342,0336,0332,0342,0333,0333,0342,0336,0333,0342,0332,0332,0342,0332,0332,0342,0332,0332,0342,0332,0337,0337,0337,0333,",
    "0223:0222,0222,0222,0222,0222,0222,0334,0222,0334,0221,0221,0221,0221,0221,0221,0334,0221,0334,",
    "0224:0362,0203,0335,0203,0203,0203,0203,0203,0203,0335,0203,0335,0203,0203,0203,0203,0203,0203,0354,0335,",
    "0225:0223,0322,0224,",
    "0226:0221,0342,",
    "0227:0336,0336,0336,0336,0347,0337,0337,0337,0337,",
    "0230:0226,0226,0226,0226,0226,0226,0226,0226,0226,0226,0226,0226,0226,0226,0226,0334,0226,0226,0334,0226,0226,0226,0226,0226,0226,0226,0226,0226,0226,0226,0226,0226,0226,0226,0334,0226,0226,0330,0332,0201,0201,0201,0201,0201,0201,0201,0201,0201,0201,0201,0201,0201,0331,0331,0331,0331,0227,0331,0331,0331,0331,0331,0227,0331,0331,0331,0331,0331,0334,0331,",
    "0231:0362,0203,0203,0335,0203,0203,0203,0203,0203,0203,0203,0203,0203,0203,0203,0203,0203,0203,0203,0335,0203,0203,0335,0203,0203,0203,0203,0203,0203,0203,0203,0203,0203,0203,0203,0203,0203,0203,0354,0335,",
    "0232:0230,0322,0231,",
    "01220:0333,0200,0332,0336,0220,0333,0337,",
    "01221:0221,0200,",
    "01222:0222,0200,",
    "01223:0333,0200,0332,0336,0330,0336,0336,0331,0333,0330,0223,0331,0331,0331,0331,0332,0337,0337,0337,0333,",
    "01224:0333,0200,0332,0336,0330,0336,0336,0331,0333,0330,0224,0332,0337,0337,0331,0337,0333,",
    "01225:0333,0200,0332,0336,0330,0336,0331,0333,0330,0336,0331,0332,0225,0332,0330,0337,0337,0331,0337,0333,0320,",
    "01226:0333,0200,0332,0226,",
    "01227:0333,0200,0336,0330,0332,0227,0331,0333,0337,",
    "01230:0333,0330,0332,0336,0331,0333,0336,0230,0337,0331,0333,0337,0336,0333,0337,0333,0333,0333,",
    "01231:0336,0333,0231,0337,0333,0333,0333,0333,0333,0333,0333,0333,",
    "01232:0336,0333,0232,0337,0333,0333,0333,0333,0333,0333,0333,0333,0320,",
    "01233:0333,0200,",
    "01234:0333,0200,",
    "01235:0333,0200,",
    "01236:0333,0200,",
    "01237:0333,0200,",
    "0240:0220,0336,0331,0333,0336,0321,0335,0342,0335,0335,0342,0335,0330,0330,0332,0332,0337,0337,",
    "01240:0333,0200,0336,0330,0332,0210,0240,0211,0333,0331,0337,",
    "0241:0220,0336,0321,0343,0332,0350,0335,0336,0342,0334,0334,0342,0335,0304,0337,0333,0337,",
    "01241:0333,0200,0336,0332,0330,0210,0241,0211,0333,0331,0337,",
    "0242:0220,0321,0336,0343,0333,0336,0350,0335,0342,0334,0334,0342,0335,0337,0304,0332,0337,",
    "01242:0333,0200,0336,0330,0332,0210,0242,0211,0333,0331,0337,",
    "0243:0220,0336,0331,0332,0336,0321,0343,0332,0350,0334,0336,0342,0335,0335,0342,0337,0334,0334,0335,0304,0332,0330,0330,0337,0337,0333,",
    "01243:0333,0200,0336,0330,0332,0210,0243,0211,0333,0331,0337,",
    "0244:0220,0336,0331,0333,0336,0321,0343,0333,0350,0336,0335,0342,0334,0334,0342,0335,0337,0304,0333,0330,0330,0337,0337,0332,",
    "01244:0333,0200,0336,0330,0332,0210,0244,0211,0333,0331,0337,",
    "0245:0210,0332,0332,0362,0335,0203,0203,0203,0203,0334,0203,0363,0332,0332,0331,0211,",
    "01245:0333,0200,0336,0330,0332,0336,0245,0337,0333,0331,0337,",
    "0246:0210,0332,0332,0335,0306,0336,0330,0335,0335,0335,0321,0362,0203,0335,0335,0203,0364,0331,0350,0335,0337,0366,0333,0333,0333,0333,0334,0334,0334,0334,0367,0335,0336,0342,0334,0334,0342,0330,0330,0330,0330,0335,0335,0335,0304,0337,0211,",
    "01246:0333,0200,0336,0330,0332,0336,0246,",
    "0247:0330,0332,0336,0332,0336,0221,0333,0333,0333,0222,0333,0333,0333,0223,0333,0333,0333,0225,0333,0331,0331,0331,0332,0332,0332,0332,0332,0332,0332,0332,0332,0332,0332,0332,0333,0333,0226,0331,0331,0331,0333,0333,0333,0333,0333,0333,0333,0333,0333,0333,0333,0333,0333,0330,0333,0330,0330,0333,0330,0331,0332,0332,0332,0332,0332,0332,0332,0332,0332,0332,0332,0332,0227,0333,0333,0333,0230,0333,0331,0331,0331,0331,0332,0332,0332,0330,0332,0332,0332,0332,0332,0332,0333,0333,0231,0333,0333,0333,0232,0331,0333,0330,0333,0333,0233,0333,0333,0333,0234,0330,0330,0332,0330,0332,0332,0337,0337,",
    "01247:0333,0200,0336,0330,0332,0220,0336,0247,0337,0331,0333,0337,"
  ]
}</json>-->    <line x1="132" y1="154" x2="132" y2="46" style="stroke:#000000;stroke-width:1" />
    <line x1="78" y1="154" x2="78" y2="100" style="stroke:#000000;stroke-width:1" />
    <line x1="51" y1="154" x2="51" y2="127" style="stroke:#000000;stroke-width:1" />
    <line x1="105" y1="154" x2="105" y2="127" style="stroke:#000000;stroke-width:1" />
    <line x1="119" y1="154" x2="119" y2="141" style="stroke:#000000;stroke-width:1" />
    <line x1="91" y1="154" x2="91" y2="141" style="stroke:#000000;stroke-width:1" />
    <line x1="64" y1="154" x2="64" y2="141" style="stroke:#000000;stroke-width:1" />
    <line x1="37" y1="154" x2="37" y2="141" style="stroke:#000000;stroke-width:1" />
    <line x1="241" y1="154" x2="241" y2="46" style="stroke:#000000;stroke-width:1" />
    <line x1="187" y1="154" x2="187" y2="100" style="stroke:#000000;stroke-width:1" />
    <line x1="159" y1="154" x2="159" y2="127" style="stroke:#000000;stroke-width:1" />
    <line x1="214" y1="154" x2="214" y2="127" style="stroke:#000000;stroke-width:1" />
    <line x1="227" y1="154" x2="227" y2="141" style="stroke:#000000;stroke-width:1" />
    <line x1="200" y1="154" x2="200" y2="141" style="stroke:#000000;stroke-width:1" />
    <line x1="173" y1="154" x2="173" y2="141" style="stroke:#000000;stroke-width:1" />
    <line x1="146" y1="154" x2="146" y2="141" style="stroke:#000000;stroke-width:1" />
    <line x1="350" y1="154" x2="350" y2="46" style="stroke:#000000;stroke-width:1" />
    <line x1="296" y1="154" x2="296" y2="100" style="stroke:#000000;stroke-width:1" />
    <line x1="268" y1="154" x2="268" y2="127" style="stroke:#000000;stroke-width:1" />
    <line x1="323" y1="154" x2="323" y2="127" style="stroke:#000000;stroke-width:1" />
    <line x1="336" y1="154" x2="336" y2="141" style="stroke:#000000;stroke-width:1" />
    <line x1="309" y1="154" x2="309" y2="141" style="stroke:#000000;stroke-width:1" />
    <line x1="282" y1="154" x2="282" y2="141" style="stroke:#000000;stroke-width:1" />
    <line x1="255" y1="154" x2="255" y2="141" style="stroke:#000000;stroke-width:1" />
    <line x1="459" y1="154" x2="459" y2="46" style="stroke:#000000;stroke-width:1" />
    <line x1="404" y1="154" x2="404" y2="100" style="stroke:#000000;stroke-width:1" />
    <line x1="377" y1="154" x2="377" y2="127" style="stroke:#000000;stroke-width:1" />
    <line x1="432" y1="154" x2="432" y2="127" style="stroke:#000000;stroke-width:1" />
    <line x1="445" y1="154" x2="445" y2="141" style="stroke:#000000;stroke-width:1" />
    <line x1="418" y1="154" x2="418" y2="141" style="stroke:#000000;stroke-width:1" />
    <line x1="391" y1="154" x2="391" y2="141" style="stroke:#000000;stroke-width:1" />
    <line x1="364" y1="154" x2="364" y2="141" style="stroke:#000000;stroke-width:1" />
    <line x1="568" y1="154" x2="568" y2="46" style="stroke:#000000;stroke-width:1" />
    <line x1="513" y1="154" x2="513" y2="100" style="stroke:#000000;stroke-width:1" />
    <line x1="486" y1="154" x2="486" y2="127" style="stroke:#000000;stroke-width:1" />
    <line x1="541" y1="154" x2="541" y2="127" style="stroke:#000000;stroke-width:1" />
    <line x1="554" y1="154" x2="554" y2="141" style="stroke:#000000;stroke-width:1" />
    <line x1="527" y1="154" x2="527" y2="141" style="stroke:#000000;stroke-width:1" />
    <line x1="500" y1="154" x2="500" y2="141" style="stroke:#000000;stroke-width:1" />
    <line x1="473" y1="154" x2="473" y2="141" style="stroke:#000000;stroke-width:1" />
    <line x1="677" y1="154" x2="677" y2="46" style="stroke:#000000;stroke-width:1" />
    <line x1="622" y1="154" x2="622" y2="100" style="stroke:#000000;stroke-width:1" />
    <line x1="595" y1="154" x2="595" y2="127" style="stroke:#000000;stroke-width:1" />
    <line x1="649" y1="154" x2="649" y2="127" style="stroke:#000000;stroke-width:1" />
    <line x1="663" y1="154" x2="663" y2="141" style="stroke:#000000;stroke-width:1" />
    <line x1="636" y1="154" x2="636" y2="141" style="stroke:#000000;stroke-width:1" />
    <line x1="609" y1="154" x2="609" y2="141" style="stroke:#000000;stroke-width:1" />
    <line x1="581" y1="154" x2="581" y2="141" style="stroke:#000000;stroke-width:1" />
    <line x1="677" y1="46" x2="568" y2="46" style="stroke:#000000;stroke-width:1" />
    <line x1="677" y1="100" x2="622" y2="100" style="stroke:#000000;stroke-width:1" />
    <line x1="677" y1="127" x2="649" y2="127" style="stroke:#000000;stroke-width:1" />
    <line x1="677" y1="73" x2="649" y2="73" style="stroke:#000000;stroke-width:1" />
    <line x1="677" y1="59" x2="663" y2="59" style="stroke:#000000;stroke-width:1" />
    <line x1="677" y1="86" x2="663" y2="86" style="stroke:#000000;stroke-width:1" />
    <line x1="677" y1="114" x2="663" y2="114" style="stroke:#000000;stroke-width:1" />
    <line x1="677" y1="141" x2="663" y2="141" style="stroke:#000000;stroke-width:1" />
    <line x1="666" y1="46" x2="666" y2="56" style="stroke:#000000;stroke-width:1" />
    <line x1="655" y1="46" x2="655" y2="56" style="stroke:#000000;stroke-width:1" />
    <line x1="644" y1="46" x2="644" y2="56" style="stroke:#000000;stroke-width:1" />
    <line x1="633" y1="46" x2="633" y2="56" style="stroke:#000000;stroke-width:1" />
    <line x1="622" y1="46" x2="622" y2="56" style="stroke:#000000;stroke-width:1" />
    <line x1="622" y1="46" x2="622" y2="67" style="stroke:#000000;stroke-width:1" />
    <line x1="611" y1="46" x2="611" y2="56" style="stroke:#000000;stroke-width:1" />
    <line x1="600" y1="46" x2="600" y2="56" style="stroke:#000000;stroke-width:1" />
    <line x1="590" y1="46" x2="590" y2="56" style="stroke:#000000;stroke-width:1" />
    <line x1="579" y1="46" x2="579" y2="56" style="stroke:#000000;stroke-width:1" />
    <line x1="568" y1="46" x2="568" y2="67" style="stroke:#000000;stroke-width:1" />
    <line x1="557" y1="46" x2="557" y2="56" style="stroke:#000000;stroke-width:1" />
    <line x1="546" y1="46" x2="546" y2="56" style="stroke:#000000;stroke-width:1" />
    <line x1="535" y1="46" x2="535" y2="56" style="stroke:#000000;stroke-width:1" />
    <line x1="524" y1="46" x2="524" y2="56" style="stroke:#000000;stroke-width:1" />
    <line x1="513" y1="46" x2="513" y2="56" style="stroke:#000000;stroke-width:1" />
    <line x1="513" y1="46" x2="513" y2="67" style="stroke:#000000;stroke-width:1" />
    <line x1="502" y1="46" x2="502" y2="56" style="stroke:#000000;stroke-width:1" />
    <line x1="492" y1="46" x2="492" y2="56" style="stroke:#000000;stroke-width:1" />
    <line x1="481" y1="46" x2="481" y2="56" style="stroke:#000000;stroke-width:1" />
    <line x1="470" y1="46" x2="470" y2="56" style="stroke:#000000;stroke-width:1" />
    <line x1="459" y1="46" x2="459" y2="67" style="stroke:#000000;stroke-width:1" />
    <line x1="448" y1="46" x2="448" y2="56" style="stroke:#000000;stroke-width:1" />
    <line x1="437" y1="46" x2="437" y2="56" style="stroke:#000000;stroke-width:1" />
    <line x1="426" y1="46" x2="426" y2="56" style="stroke:#000000;stroke-width:1" />
    <line x1="415" y1="46" x2="415" y2="56" style="stroke:#000000;stroke-width:1" />
    <line x1="404" y1="46" x2="404" y2="56" style="stroke:#000000;stroke-width:1" />
    <line x1="404" y1="46" x2="404" y2="67" style="stroke:#000000;stroke-width:1" />
    <line x1="394" y1="46" x2="394" y2="56" style="stroke:#000000;stroke-width:1" />
    <line x1="383" y1="46" x2="383" y2="56" style="stroke:#000000;stroke-width:1" />
    <line x1="372" y1="46" x2="372" y2="56" style="stroke:#000000;stroke-width:1" />
    <line x1="361" y1="46" x2="361" y2="56" style="stroke:#000000;stroke-width:1" />
    <line x1="350" y1="46" x2="350" y2="67" style="stroke:#000000;stroke-width:1" />
    <line x1="339" y1="46" x2="339" y2="56" style="stroke:#000000;stroke-width:1" />
    <line x1="328" y1="46" x2="328" y2="56" style="stroke:#000000;stroke-width:1" />
    <line x1="317" y1="46" x2="317" y2="56" style="stroke:#000000;stroke-width:1" />
    <line x1="306" y1="46" x2="306" y2="56" style="stroke:#000000;stroke-width:1" />
    <line x1="296" y1="46" x2="296" y2="56" style="stroke:#000000;stroke-width:1" />
    <line x1="296" y1="46" x2="296" y2="67" style="stroke:#000000;stroke-width:1" />
    <line x1="285" y1="46" x2="285" y2="56" style="stroke:#000000;stroke-width:1" />
    <line x1="274" y1="46" x2="274" y2="56" style="stroke:#000000;stroke-width:1" />
    <line x1="263" y1="46" x2="263" y2="56" style="stroke:#000000;stroke-width:1" />
    <line x1="252" y1="46" x2="252" y2="56" style="stroke:#000000;stroke-width:1" />
    <line x1="241" y1="46" x2="241" y2="67" style="stroke:#000000;stroke-width:1" />
    <line x1="230" y1="46" x2="230" y2="56" style="stroke:#000000;stroke-width:1" />
    <line x1="219" y1="46" x2="219" y2="56" style="stroke:#000000;stroke-width:1" />
    <line x1="208" y1="46" x2="208" y2="56" style="stroke:#000000;stroke-width:1" />
    <line x1="198" y1="46" x2="198" y2="56" style="stroke:#000000;stroke-width:1" />
    <line x1="187" y1="46" x2="187" y2="56" style="stroke:#000000;stroke-width:1" />
    <line x1="187" y1="46" x2="187" y2="67" style="stroke:#000000;stroke-width:1" />
    <line x1="176" y1="46" x2="176" y2="56" style="stroke:#000000;stroke-width:1" />
    <line x1="165" y1="46" x2="165" y2="56" style="stroke:#000000;stroke-width:1" />
    <line x1="154" y1="46" x2="154" y2="56" style="stroke:#000000;stroke-width:1" />
    <line x1="143" y1="46" x2="143" y2="56" style="stroke:#000000;stroke-width:1" />
    <line x1="132" y1="46" x2="132" y2="67" style="stroke:#000000;stroke-width:1" />
    <line x1="121" y1="46" x2="121" y2="56" style="stroke:#000000;stroke-width:1" />
    <line x1="110" y1="46" x2="110" y2="56" style="stroke:#000000;stroke-width:1" />
    <line x1="100" y1="46" x2="100" y2="56" style="stroke:#000000;stroke-width:1" />
    <line x1="89" y1="46" x2="89" y2="56" style="stroke:#000000;stroke-width:1" />
    <line x1="78" y1="46" x2="78" y2="56" style="stroke:#000000;stroke-width:1" />
    <line x1="78" y1="46" x2="78" y2="67" style="stroke:#000000;stroke-width:1" />
    <line x1="67" y1="46" x2="67" y2="56" style="stroke:#000000;stroke-width:1" />
    <line x1="56" y1="46" x2="56" y2="56" style="stroke:#000000;stroke-width:1" />
    <line x1="45" y1="46" x2="45" y2="56" style="stroke:#000000;stroke-width:1" />
    <line x1="34" y1="46" x2="34" y2="56" style="stroke:#000000;stroke-width:1" />
    <line x1="23" y1="46" x2="23" y2="67" style="stroke:#000000;stroke-width:1" />
    <line x1="23" y1="56" x2="34" y2="56" style="stroke:#000000;stroke-width:1" />
    <line x1="23" y1="67" x2="34" y2="67" style="stroke:#000000;stroke-width:1" />
    <line x1="23" y1="78" x2="34" y2="78" style="stroke:#000000;stroke-width:1" />
    <line x1="23" y1="89" x2="34" y2="89" style="stroke:#000000;stroke-width:1" />
    <line x1="23" y1="100" x2="34" y2="100" style="stroke:#000000;stroke-width:1" />
    <line x1="23" y1="100" x2="45" y2="100" style="stroke:#000000;stroke-width:1" />
    <line x1="23" y1="111" x2="34" y2="111" style="stroke:#000000;stroke-width:1" />
    <line x1="23" y1="122" x2="34" y2="122" style="stroke:#000000;stroke-width:1" />
    <line x1="23" y1="133" x2="34" y2="133" style="stroke:#000000;stroke-width:1" />
    <line x1="23" y1="144" x2="34" y2="144" style="stroke:#000000;stroke-width:1" />
    <line x1="23" y1="154" x2="45" y2="154" style="stroke:#000000;stroke-width:1" />
	<path d = "M23 154 L23 46 L132 46 L241 46 L350 46 L459 46 L568 46 L677 46 L677 154 L568 154 L459 154 L350 154 L241 154 L132 154 L23 154 Z" stroke = "#ff0000" stroke-width = "1" fill = "none" /></svg>