<svg width="700" height="500" viewbox = "0 0 700 500"  xmlns="http://www.w3.org/2000/svg">
<!--<json>{
  "glyph": "0333,0331,0333,0331,0337,0337,0333,0336,0332,0332,0336,0333,0362,0203,0203,0203,0203,0334,0203,0203,0203,0203,0203,0203,0334,0203,0203,0203,0203,0334,0203,0203,0203,0203,0203,0203,0354,0334,0330,0330,0332,0332,0332,0330,0332,0332,0336,0331,0332,0333,0330,0336,0331,0337,01127,01127,01127,01056,0331,0331,0333,0332,0332,0332,0332,01124,01110,01105,01055,01125,01116,01111,01124,0331,0332,0331,0332,0332,01056,01117,01122,01107,",
  "x0": 350,
  "y0": 250,
  "unit": 97.43585500000007,
  "width": 700,
  "height": 500,
  "style": {
    "color0": "black",
    "fill0": "black",
    "line0": 1,
    "color1": "black",
    "fill1": "black",
    "line1": 3,
    "color2": "red",
    "fill2": "red",
    "line2": 1,
    "color3": "#FF7900",
    "fill3": "#FF7900",
    "line3": 1,
    "color4": "yellow",
    "fill4": "yellow",
    "line4": 1,
    "color5": "green",
    "fill5": "green",
    "line5": 1,
    "color6": "blue",
    "fill6": "blue",
    "line6": 1,
    "color7": "purple",
    "fill7": "purple",
    "line7": 1
  },
  "shapes": [
    "0220:0333,0342,",
    "0221:0316,0336,0313,0336,0220,0220,0220,0220,0220,0337,0342,0336,0220,0220,0220,0220,0333,0337,0342,0336,0337,0316,0337,0313,",
    "0222:0333,0342,0336,0332,0342,0336,0332,0342,0333,0333,0342,0336,0333,0342,0332,0332,0342,0332,0332,0342,0332,0332,0342,0332,0337,0337,0337,0333,",
    "0223:0222,0222,0222,0222,0222,0222,0334,0222,0334,0221,0221,0221,0221,0221,0221,0334,0221,0334,",
    "0224:0362,0203,0335,0203,0203,0203,0203,0203,0203,0335,0203,0335,0203,0203,0203,0203,0203,0203,0354,0335,",
    "0225:0223,0322,0224,",
    "0226:0221,0342,",
    "0227:0336,0336,0336,0336,0347,0337,0337,0337,0337,",
    "0230:0226,0226,0226,0226,0226,0226,0226,0226,0226,0226,0226,0226,0226,0226,0226,0334,0226,0226,0334,0226,0226,0226,0226,0226,0226,0226,0226,0226,0226,0226,0226,0226,0226,0226,0334,0226,0226,0330,0332,0201,0201,0201,0201,0201,0201,0201,0201,0201,0201,0201,0201,0201,0331,0331,0331,0331,0227,0331,0331,0331,0331,0331,0227,0331,0331,0331,0331,0331,0334,0331,",
    "0231:0362,0203,0203,0335,0203,0203,0203,0203,0203,0203,0203,0203,0203,0203,0203,0203,0203,0203,0203,0335,0203,0203,0335,0203,0203,0203,0203,0203,0203,0203,0203,0203,0203,0203,0203,0203,0203,0203,0354,0335,",
    "0232:0320,0230,0322,0231,",
    "0234:0127,0127,0127,056,0124,0110,0105,055,0125,0116,0111,0124,056,0117,0122,0107,0365,",
    "0235:0225,0370,0336,0336,0320,0330,0333,0333,0330,0333,0333,0333,0330,0333,0332,0336,0332,0336,0332,0332,0332,0332,0332,0332,0332,0332,0337,0337,0211,0333,0333,0333,0331,0336,0333,0333,0333,0333,0333,0330,0177,01127,01127,01127,01056,01124,01110,01105,01055,01125,01116,01111,01124,01056,01117,01122,01107,0371,",
    "0236:0336,0232,0370,0336,0336,0320,0330,0333,0333,0330,0333,0333,0333,0330,0333,0332,0336,0332,0336,0332,0332,0332,0332,0332,0332,0332,0332,0337,0337,0211,0333,0333,0333,0331,0336,0333,0333,0333,0333,0333,0330,0177,0337,0330,0330,0333,0333,0330,0333,0333,0333,0333,0333,0333,0333,0333,0333,0333,0337,0210,0210,0210,0333,0336,0331,0332,0337,0332,0332,0336,0333,0337,01127,01127,01127,01056,01124,01110,01105,01055,01125,01116,01111,01124,01056,01117,01122,01107,0371,0337,",
    "0237:0333,0330,0333,0320,0331,0333,0336,0330,0333,0332,0332,0332,0332,0332,0332,0336,0331,0333,0337,0234,0332,0336,0331,0332,0337,0337,0337,",
    "01220:0333,0200,0332,0336,0220,0333,0337,",
    "01221:0221,0200,",
    "01222:0222,0200,",
    "01223:0333,0200,0332,0336,0330,0336,0336,0331,0333,0330,0223,0331,0331,0331,0331,0332,0337,0337,0337,0333,",
    "01224:0333,0200,0332,0336,0330,0336,0336,0331,0333,0330,0224,0332,0337,0337,0331,0337,0333,",
    "01225:0333,0200,0332,0336,0330,0336,0331,0333,0330,0336,0331,0332,0225,0332,0330,0337,0337,0331,0337,0333,0320,",
    "01226:0333,0200,0332,0226,",
    "01227:0333,0200,0336,0330,0332,0227,0331,0333,0337,",
    "01230:0333,0330,0332,0336,0331,0333,0336,0230,0337,0331,0333,0337,0336,0333,0337,0333,0333,0333,",
    "01231:0336,0333,0231,0337,0333,0333,0333,0333,0333,0333,0333,0333,",
    "01232:0336,0333,0232,0337,0333,0333,0333,0333,0333,0333,0333,0333,0320,",
    "01233:0333,0200,",
    "01234:0333,0200,",
    "01235:0336,0333,0337,0235,0333,0333,0333,0333,0333,0333,0336,0333,0337,",
    "01236:0336,0333,0337,0236,0333,0333,0333,0333,0333,0333,0333,0333,",
    "01237:0333,0200,",
    "0240:0220,0336,0331,0333,0336,0321,0335,0342,0335,0335,0342,0335,0330,0330,0332,0332,0337,0337,",
    "01240:0333,0200,0336,0330,0332,0210,0240,0211,0333,0331,0337,",
    "0241:0220,0336,0321,0343,0332,0350,0335,0336,0342,0334,0334,0342,0335,0304,0337,0333,0337,",
    "01241:0333,0200,0336,0332,0330,0210,0241,0211,0333,0331,0337,",
    "0242:0220,0321,0336,0343,0333,0336,0350,0335,0342,0334,0334,0342,0335,0337,0304,0332,0337,",
    "01242:0333,0200,0336,0330,0332,0210,0242,0211,0333,0331,0337,",
    "0243:0220,0336,0331,0332,0336,0321,0343,0332,0350,0334,0336,0342,0335,0335,0342,0337,0334,0334,0335,0304,0332,0330,0330,0337,0337,0333,",
    "01243:0333,0200,0336,0330,0332,0210,0243,0211,0333,0331,0337,",
    "0244:0220,0336,0331,0333,0336,0321,0343,0333,0350,0336,0335,0342,0334,0334,0342,0335,0337,0304,0333,0330,0330,0337,0337,0332,",
    "01244:0333,0200,0336,0330,0332,0210,0244,0211,0333,0331,0337,",
    "0245:0210,0332,0332,0362,0335,0203,0203,0203,0203,0334,0203,0363,0332,0332,0331,0211,",
    "01245:0333,0200,0336,0330,0332,0336,0245,0337,0333,0331,0337,",
    "0246:0210,0332,0332,0335,0306,0336,0330,0335,0335,0335,0321,0362,0203,0335,0335,0203,0364,0331,0350,0335,0337,0366,0333,0333,0333,0333,0334,0334,0334,0334,0367,0335,0336,0342,0334,0334,0342,0330,0330,0330,0330,0335,0335,0335,0304,0337,0211,",
    "01246:0333,0200,0336,0330,0332,0336,0246,",
    "0247:0330,0332,0336,0332,0336,0221,0333,0333,0333,0222,0333,0333,0333,0223,0333,0333,0333,0225,0333,0331,0331,0331,0332,0332,0332,0332,0332,0332,0332,0332,0332,0332,0332,0332,0333,0333,0226,0331,0331,0331,0333,0333,0333,0333,0333,0333,0333,0333,0333,0333,0333,0333,0333,0330,0333,0330,0330,0333,0330,0331,0332,0332,0332,0332,0332,0332,0332,0332,0332,0332,0332,0332,0227,0333,0333,0333,0230,0333,0331,0331,0331,0331,0332,0332,0332,0330,0332,0332,0332,0332,0332,0332,0333,0333,0231,0333,0333,0333,0232,0331,0333,0330,0333,0333,0233,0333,0333,0333,0234,0330,0330,0332,0330,0332,0332,0337,0337,",
    "01247:0333,0200,0336,0330,0332,0220,0336,0247,0337,0331,0333,0337,"
  ]
}</json>-->	<path d = "M642 445 L642 347 L642 250 L642 153 L642 55 L545 55 L447 55 L350 55 L253 55 L155 55 L58 55 L58 153 L58 250 L58 347 L58 445 L155 445 L253 445 L350 445 L447 445 L545 445 L642 445 Z" stroke = "#000000" stroke-width = "1" fill = "none" />	<path d = "M166 177 L161 172 L161 166 L161 161 L161 155 L161 150 L161 144 L161 139 L161 134 L161 128 L166 128 L166 134 L166 139 L166 144 L166 150 L166 155 L166 161 L166 166 L166 172 L169 172 L169 177 L166 177 Z" stroke = "#000000" stroke-width = "1" fill = "none" />	<path d = "M174 177 L174 172 L174 166 L174 161 L179 161 L179 166 L179 172 L179 177 L174 177 Z" stroke = "#000000" stroke-width = "1" fill = "none" />	<path d = "M185 177 L185 172 L188 172 L188 166 L188 161 L188 155 L188 150 L188 144 L188 139 L188 134 L188 128 L193 128 L193 134 L193 139 L193 144 L193 150 L193 155 L193 161 L193 166 L193 172 L188 177 L185 177 Z" stroke = "#000000" stroke-width = "1" fill = "none" />	<path d = "M209 177 L204 172 L204 166 L204 161 L204 155 L204 150 L204 144 L204 139 L204 134 L204 128 L209 128 L209 134 L209 139 L209 144 L209 150 L209 155 L209 161 L209 166 L209 172 L212 172 L212 177 L209 177 Z" stroke = "#000000" stroke-width = "1" fill = "none" />	<path d = "M217 177 L217 172 L217 166 L217 161 L223 161 L223 166 L223 172 L223 177 L217 177 Z" stroke = "#000000" stroke-width = "1" fill = "none" />	<path d = "M228 177 L228 172 L231 172 L231 166 L231 161 L231 155 L231 150 L231 144 L231 139 L231 134 L231 128 L236 128 L236 134 L236 139 L236 144 L236 150 L236 155 L236 161 L236 166 L236 172 L231 177 L228 177 Z" stroke = "#000000" stroke-width = "1" fill = "none" />	<path d = "M253 177 L247 172 L247 166 L247 161 L247 155 L247 150 L247 144 L247 139 L247 134 L247 128 L253 128 L253 134 L253 139 L253 144 L253 150 L253 155 L253 161 L253 166 L253 172 L255 172 L255 177 L253 177 Z" stroke = "#000000" stroke-width = "1" fill = "none" />	<path d = "M261 177 L261 172 L261 166 L261 161 L266 161 L266 166 L266 172 L266 177 L261 177 Z" stroke = "#000000" stroke-width = "1" fill = "none" />	<path d = "M272 177 L272 172 L274 172 L274 166 L274 161 L274 155 L274 150 L274 144 L274 139 L274 134 L274 128 L280 128 L280 134 L280 139 L280 144 L280 150 L280 155 L280 161 L280 166 L280 172 L274 177 L272 177 Z" stroke = "#000000" stroke-width = "1" fill = "none" />	<path d = "M309 177 L309 172 L304 172 L304 177 L309 177 Z" stroke = "#000000" stroke-width = "1" fill = "none" />	<path d = "M204 274 L201 274 L201 269 L201 264 L201 258 L201 253 L201 247 L201 242 L201 236 L201 231 L196 231 L190 231 L188 231 L188 226 L193 226 L198 226 L204 226 L209 226 L215 226 L220 226 L220 231 L215 231 L209 231 L207 231 L207 236 L207 242 L207 247 L207 253 L207 258 L207 264 L207 269 L207 274 L204 274 Z" stroke = "#000000" stroke-width = "1" fill = "none" />	<path d = "M231 274 L231 269 L231 264 L231 258 L231 253 L231 247 L231 242 L231 236 L231 231 L231 226 L236 226 L236 231 L236 236 L236 242 L236 247 L242 247 L244 247 L244 253 L239 253 L236 253 L236 258 L236 264 L236 269 L236 274 L231 274 Z" stroke = "#000000" stroke-width = "1" fill = "none" />	<path d = "M258 274 L258 269 L258 264 L258 258 L258 253 L253 253 L250 253 L250 247 L255 247 L258 247 L258 242 L258 236 L258 231 L258 226 L263 226 L263 231 L263 236 L263 242 L263 247 L263 253 L263 258 L263 264 L263 269 L263 274 L258 274 Z" stroke = "#000000" stroke-width = "1" fill = "none" />	<path d = "M274 274 L274 269 L274 264 L274 258 L274 253 L274 247 L274 242 L274 236 L274 231 L274 226 L280 226 L285 226 L288 226 L288 231 L282 231 L280 231 L280 236 L280 242 L280 247 L285 247 L288 247 L288 253 L282 253 L280 253 L280 258 L280 264 L280 269 L285 269 L288 269 L288 274 L282 274 L280 274 L274 274 Z" stroke = "#000000" stroke-width = "1" fill = "none" />	<path d = "M293 274 L293 269 L299 269 L304 269 L307 269 L307 274 L301 274 L296 274 L293 274 Z" stroke = "#000000" stroke-width = "1" fill = "none" />	<path d = "M293 231 L293 226 L299 226 L304 226 L307 226 L307 231 L301 231 L299 231 L296 231 L293 231 Z" stroke = "#000000" stroke-width = "1" fill = "none" />	<path d = "M323 253 L323 247 L328 247 L334 247 L339 247 L345 247 L345 253 L339 253 L334 253 L328 253 L323 253 Z" stroke = "#000000" stroke-width = "1" fill = "none" />	<path d = "M374 274 L374 269 L369 269 L366 269 L366 264 L366 258 L366 253 L366 247 L366 242 L366 236 L366 231 L366 226 L361 226 L361 231 L361 236 L361 242 L361 247 L361 253 L361 258 L361 264 L361 269 L366 274 L372 274 L374 274 Z" stroke = "#000000" stroke-width = "1" fill = "none" />	<path d = "M380 274 L380 269 L385 269 L388 269 L388 264 L388 258 L388 253 L388 247 L388 242 L388 236 L388 231 L388 226 L393 226 L393 231 L393 236 L393 242 L393 247 L393 253 L393 258 L393 264 L393 269 L388 274 L382 274 L380 274 Z" stroke = "#000000" stroke-width = "1" fill = "none" />	<path d = "M404 274 L404 269 L404 264 L404 258 L404 253 L404 247 L404 242 L404 236 L404 231 L404 226 L410 226 L410 231 L415 236 L420 242 L426 247 L431 253 L431 247 L431 242 L431 236 L431 231 L431 226 L437 226 L437 231 L437 236 L437 242 L437 247 L437 253 L437 258 L437 264 L437 269 L437 274 L431 274 L431 269 L431 264 L426 258 L420 253 L415 247 L410 242 L410 247 L410 253 L410 258 L410 264 L410 269 L410 274 L404 274 Z" stroke = "#000000" stroke-width = "1" fill = "none" />	<path d = "M450 274 L450 269 L456 269 L461 269 L461 264 L461 258 L461 253 L461 247 L461 242 L461 236 L461 231 L456 231 L450 231 L450 226 L456 226 L461 226 L466 226 L472 226 L477 226 L477 231 L472 231 L466 231 L466 236 L466 242 L466 247 L466 253 L466 258 L466 264 L466 269 L472 269 L477 269 L477 274 L472 274 L466 274 L461 274 L456 274 L450 274 Z" stroke = "#000000" stroke-width = "1" fill = "none" />	<path d = "M507 274 L504 274 L504 269 L504 264 L504 258 L504 253 L504 247 L504 242 L504 236 L504 231 L499 231 L493 231 L491 231 L491 226 L496 226 L502 226 L507 226 L512 226 L518 226 L523 226 L523 231 L518 231 L512 231 L510 231 L510 236 L510 242 L510 247 L510 253 L510 258 L510 264 L510 269 L510 274 L507 274 Z" stroke = "#000000" stroke-width = "1" fill = "none" />	<path d = "M407 372 L407 366 L401 366 L401 372 L407 372 Z" stroke = "#000000" stroke-width = "1" fill = "none" />	<path d = "M445 372 L445 366 L442 366 L437 361 L437 356 L437 350 L437 345 L437 339 L437 334 L442 328 L445 328 L445 323 L439 323 L437 323 L431 328 L431 334 L431 339 L431 345 L431 350 L431 356 L431 361 L431 366 L437 372 L442 372 L445 372 Z" stroke = "#000000" stroke-width = "1" fill = "none" />	<path d = "M450 372 L450 366 L453 366 L458 361 L458 356 L458 350 L458 345 L458 339 L458 334 L453 328 L450 328 L450 323 L456 323 L458 323 L464 328 L464 334 L464 339 L464 345 L464 350 L464 356 L464 361 L464 366 L458 372 L453 372 L450 372 Z" stroke = "#000000" stroke-width = "1" fill = "none" />	<path d = "M475 372 L475 366 L475 361 L475 356 L475 350 L475 345 L475 339 L475 334 L475 328 L475 323 L480 323 L480 328 L480 334 L480 339 L480 345 L480 350 L480 356 L480 361 L480 366 L480 372 L475 372 Z" stroke = "#000000" stroke-width = "1" fill = "none" />	<path d = "M485 350 L485 345 L491 345 L496 345 L502 339 L502 334 L496 328 L491 328 L485 328 L485 323 L491 323 L496 323 L502 323 L507 328 L507 334 L507 339 L507 345 L502 350 L496 350 L491 350 L485 350 Z" stroke = "#000000" stroke-width = "1" fill = "none" />	<path d = "M507 372 L507 366 L502 361 L496 356 L491 356 L491 361 L496 366 L502 372 L507 372 Z" stroke = "#000000" stroke-width = "1" fill = "none" />	<path d = "M523 372 L518 366 L518 361 L518 356 L518 350 L518 345 L518 339 L518 334 L518 328 L523 323 L529 323 L531 323 L531 328 L526 328 L523 328 L523 334 L523 339 L523 345 L523 350 L523 356 L523 361 L523 366 L529 366 L534 366 L539 366 L539 372 L534 372 L529 372 L523 372 " stroke = "#000000" stroke-width = "1" fill = "none" />	<path d = "M545 372 L545 366 L545 361 L539 361 L537 361 L537 356 L542 356 L548 356 L550 356 L550 361 L550 366 L550 372 L545 372 " stroke = "#000000" stroke-width = "1" fill = "none" />	<path d = "M550 331 L545 331 L545 328 L539 328 L537 328 L537 323 L539 323 L545 323 L550 328 L550 331 " stroke = "#000000" stroke-width = "1" fill = "none" /></svg>