<svg width="700" height="150" viewbox = "0 0 700 150"  xmlns="http://www.w3.org/2000/svg">
<!--<json>{
  "glyph": "0332,0332,0332,0336,0331,0337,0235,",
  "x0": 350,
  "y0": 75,
  "unit": 107.1794405000001,
  "width": 700,
  "height": 150,
  "style": {
    "color0": "black",
    "fill0": "black",
    "line0": 1,
    "color1": "black",
    "fill1": "black",
    "line1": 3,
    "color2": "red",
    "fill2": "red",
    "line2": 1,
    "color3": "#FF7900",
    "fill3": "#FF7900",
    "line3": 1,
    "color4": "yellow",
    "fill4": "yellow",
    "line4": 1,
    "color5": "green",
    "fill5": "green",
    "line5": 1,
    "color6": "blue",
    "fill6": "blue",
    "line6": 1,
    "color7": "purple",
    "fill7": "purple",
    "line7": 1
  },
  "shapes": [
    "0220:0333,0342,",
    "0221:0316,0336,0313,0336,0220,0220,0220,0220,0220,0337,0342,0336,0220,0220,0220,0220,0333,0337,0342,0336,0337,0316,0337,0313,",
    "0222:0333,0342,0336,0332,0342,0336,0332,0342,0333,0333,0342,0336,0333,0342,0332,0332,0342,0332,0332,0342,0332,0332,0342,0332,0337,0337,0337,0333,",
    "0223:0222,0222,0222,0222,0222,0222,0334,0222,0334,0221,0221,0221,0221,0221,0221,0334,0221,0334,",
    "0224:0362,0203,0335,0203,0203,0203,0203,0203,0203,0335,0203,0335,0203,0203,0203,0203,0203,0203,0354,0335,",
    "0225:0223,0322,0224,",
    "0226:0221,0342,",
    "0227:0336,0336,0336,0336,0347,0337,0337,0337,0337,",
    "0230:0226,0226,0226,0226,0226,0226,0226,0226,0226,0226,0226,0226,0226,0226,0226,0334,0226,0226,0334,0226,0226,0226,0226,0226,0226,0226,0226,0226,0226,0226,0226,0226,0226,0226,0334,0226,0226,0330,0332,0201,0201,0201,0201,0201,0201,0201,0201,0201,0201,0201,0201,0201,0331,0331,0331,0331,0227,0331,0331,0331,0331,0331,0227,0331,0331,0331,0331,0331,0334,0331,",
    "0231:0362,0203,0203,0335,0203,0203,0203,0203,0203,0203,0203,0203,0203,0203,0203,0203,0203,0203,0203,0335,0203,0203,0335,0203,0203,0203,0203,0203,0203,0203,0203,0203,0203,0203,0203,0203,0203,0203,0354,0335,",
    "0232:0320,0230,0322,0231,",
    "0234:0127,0127,0127,056,0124,0110,0105,055,0125,0116,0111,0124,056,0117,0122,0107,0365,",
    "0235:0225,0370,0336,0336,0320,0330,0333,0333,0330,0333,0333,0333,0330,0333,0332,0336,0332,0336,0332,0332,0332,0332,0332,0332,0332,0332,0337,0337,0211,0333,0333,0333,0331,0336,0333,0333,0333,0333,0333,0330,0177,01127,01127,01127,01056,01124,01110,01105,01055,01125,01116,01111,01124,01056,01117,01122,01107,0371,",
    "0236:0336,0232,0370,0336,0336,0320,0330,0333,0333,0330,0333,0333,0333,0330,0333,0332,0336,0332,0336,0332,0332,0332,0332,0332,0332,0332,0332,0337,0337,0211,0333,0333,0333,0331,0336,0333,0333,0333,0333,0333,0330,0177,0337,0330,0330,0333,0333,0330,0333,0333,0333,0333,0333,0333,0333,0333,0333,0333,0337,0210,0210,0210,0333,0336,0331,0332,0337,0332,0332,0336,0333,0337,01127,01127,01127,01056,01124,01110,01105,01055,01125,01116,01111,01124,01056,01117,01122,01107,0371,0337,",
    "0237:0333,0330,0333,0320,0331,0333,0336,0330,0333,0332,0332,0332,0332,0332,0332,0336,0331,0333,0337,0234,0332,0336,0331,0332,0337,0337,0337,",
    "01220:0333,0200,0332,0336,0220,0333,0337,",
    "01221:0221,0200,",
    "01222:0222,0200,",
    "01223:0333,0200,0332,0336,0330,0336,0336,0331,0333,0330,0223,0331,0331,0331,0331,0332,0337,0337,0337,0333,",
    "01224:0333,0200,0332,0336,0330,0336,0336,0331,0333,0330,0224,0332,0337,0337,0331,0337,0333,",
    "01225:0333,0200,0332,0336,0330,0336,0331,0333,0330,0336,0331,0332,0225,0332,0330,0337,0337,0331,0337,0333,0320,",
    "01226:0333,0200,0332,0226,",
    "01227:0333,0200,0336,0330,0332,0227,0331,0333,0337,",
    "01230:0333,0330,0332,0336,0331,0333,0336,0230,0337,0331,0333,0337,0336,0333,0337,0333,0333,0333,",
    "01231:0336,0333,0231,0337,0333,0333,0333,0333,0333,0333,0333,0333,",
    "01232:0336,0333,0232,0337,0333,0333,0333,0333,0333,0333,0333,0333,0320,",
    "01233:0333,0200,",
    "01234:0333,0200,",
    "01235:0336,0333,0337,0235,0333,0333,0333,0333,0333,0333,0336,0333,0337,",
    "01236:0336,0333,0337,0236,0333,0333,0333,0333,0333,0333,0333,0333,",
    "01237:0333,0200,",
    "0240:0220,0336,0331,0333,0336,0321,0335,0342,0335,0335,0342,0335,0330,0330,0332,0332,0337,0337,",
    "01240:0333,0200,0336,0330,0332,0210,0240,0211,0333,0331,0337,",
    "0241:0220,0336,0321,0343,0332,0350,0335,0336,0342,0334,0334,0342,0335,0304,0337,0333,0337,",
    "01241:0333,0200,0336,0332,0330,0210,0241,0211,0333,0331,0337,",
    "0242:0220,0321,0336,0343,0333,0336,0350,0335,0342,0334,0334,0342,0335,0337,0304,0332,0337,",
    "01242:0333,0200,0336,0330,0332,0210,0242,0211,0333,0331,0337,",
    "0243:0220,0336,0331,0332,0336,0321,0343,0332,0350,0334,0336,0342,0335,0335,0342,0337,0334,0334,0335,0304,0332,0330,0330,0337,0337,0333,",
    "01243:0333,0200,0336,0330,0332,0210,0243,0211,0333,0331,0337,",
    "0244:0220,0336,0331,0333,0336,0321,0343,0333,0350,0336,0335,0342,0334,0334,0342,0335,0337,0304,0333,0330,0330,0337,0337,0332,",
    "01244:0333,0200,0336,0330,0332,0210,0244,0211,0333,0331,0337,",
    "0245:0210,0332,0332,0362,0335,0203,0203,0203,0203,0334,0203,0363,0332,0332,0331,0211,",
    "01245:0333,0200,0336,0330,0332,0336,0245,0337,0333,0331,0337,",
    "0246:0210,0332,0332,0335,0306,0336,0330,0335,0335,0335,0321,0362,0203,0335,0335,0203,0364,0331,0350,0335,0337,0366,0333,0333,0333,0333,0334,0334,0334,0334,0367,0335,0336,0342,0334,0334,0342,0330,0330,0330,0330,0335,0335,0335,0304,0337,0211,",
    "01246:0333,0200,0336,0330,0332,0336,0246,",
    "0247:0330,0332,0336,0332,0336,0221,0333,0333,0333,0222,0333,0333,0333,0223,0333,0333,0333,0225,0333,0331,0331,0331,0332,0332,0332,0332,0332,0332,0332,0332,0332,0332,0332,0332,0333,0333,0226,0331,0331,0331,0333,0333,0333,0333,0333,0333,0333,0333,0333,0333,0333,0333,0333,0330,0333,0330,0330,0333,0330,0331,0332,0332,0332,0332,0332,0332,0332,0332,0332,0332,0332,0332,0227,0333,0333,0333,0230,0333,0331,0331,0331,0331,0332,0332,0332,0330,0332,0332,0332,0332,0332,0332,0333,0333,0231,0333,0333,0333,0232,0331,0333,0330,0333,0333,0233,0333,0333,0333,0234,0330,0330,0332,0330,0332,0332,0337,0337,",
    "01247:0333,0200,0336,0330,0332,0220,0336,0247,0337,0331,0333,0337,"
  ]
}</json>-->    <line x1="136" y1="129" x2="136" y2="21" style="stroke:#000000;stroke-width:1" />
    <line x1="82" y1="129" x2="82" y2="75" style="stroke:#000000;stroke-width:1" />
    <line x1="55" y1="129" x2="55" y2="102" style="stroke:#000000;stroke-width:1" />
    <line x1="109" y1="129" x2="109" y2="102" style="stroke:#000000;stroke-width:1" />
    <line x1="122" y1="129" x2="122" y2="115" style="stroke:#000000;stroke-width:1" />
    <line x1="95" y1="129" x2="95" y2="115" style="stroke:#000000;stroke-width:1" />
    <line x1="69" y1="129" x2="69" y2="115" style="stroke:#000000;stroke-width:1" />
    <line x1="42" y1="129" x2="42" y2="115" style="stroke:#000000;stroke-width:1" />
    <line x1="243" y1="129" x2="243" y2="21" style="stroke:#000000;stroke-width:1" />
    <line x1="189" y1="129" x2="189" y2="75" style="stroke:#000000;stroke-width:1" />
    <line x1="162" y1="129" x2="162" y2="102" style="stroke:#000000;stroke-width:1" />
    <line x1="216" y1="129" x2="216" y2="102" style="stroke:#000000;stroke-width:1" />
    <line x1="229" y1="129" x2="229" y2="115" style="stroke:#000000;stroke-width:1" />
    <line x1="203" y1="129" x2="203" y2="115" style="stroke:#000000;stroke-width:1" />
    <line x1="176" y1="129" x2="176" y2="115" style="stroke:#000000;stroke-width:1" />
    <line x1="149" y1="129" x2="149" y2="115" style="stroke:#000000;stroke-width:1" />
    <line x1="350" y1="129" x2="350" y2="21" style="stroke:#000000;stroke-width:1" />
    <line x1="296" y1="129" x2="296" y2="75" style="stroke:#000000;stroke-width:1" />
    <line x1="270" y1="129" x2="270" y2="102" style="stroke:#000000;stroke-width:1" />
    <line x1="323" y1="129" x2="323" y2="102" style="stroke:#000000;stroke-width:1" />
    <line x1="337" y1="129" x2="337" y2="115" style="stroke:#000000;stroke-width:1" />
    <line x1="310" y1="129" x2="310" y2="115" style="stroke:#000000;stroke-width:1" />
    <line x1="283" y1="129" x2="283" y2="115" style="stroke:#000000;stroke-width:1" />
    <line x1="256" y1="129" x2="256" y2="115" style="stroke:#000000;stroke-width:1" />
    <line x1="457" y1="129" x2="457" y2="21" style="stroke:#000000;stroke-width:1" />
    <line x1="404" y1="129" x2="404" y2="75" style="stroke:#000000;stroke-width:1" />
    <line x1="377" y1="129" x2="377" y2="102" style="stroke:#000000;stroke-width:1" />
    <line x1="430" y1="129" x2="430" y2="102" style="stroke:#000000;stroke-width:1" />
    <line x1="444" y1="129" x2="444" y2="115" style="stroke:#000000;stroke-width:1" />
    <line x1="417" y1="129" x2="417" y2="115" style="stroke:#000000;stroke-width:1" />
    <line x1="390" y1="129" x2="390" y2="115" style="stroke:#000000;stroke-width:1" />
    <line x1="363" y1="129" x2="363" y2="115" style="stroke:#000000;stroke-width:1" />
    <line x1="564" y1="129" x2="564" y2="21" style="stroke:#000000;stroke-width:1" />
    <line x1="511" y1="129" x2="511" y2="75" style="stroke:#000000;stroke-width:1" />
    <line x1="484" y1="129" x2="484" y2="102" style="stroke:#000000;stroke-width:1" />
    <line x1="538" y1="129" x2="538" y2="102" style="stroke:#000000;stroke-width:1" />
    <line x1="551" y1="129" x2="551" y2="115" style="stroke:#000000;stroke-width:1" />
    <line x1="524" y1="129" x2="524" y2="115" style="stroke:#000000;stroke-width:1" />
    <line x1="497" y1="129" x2="497" y2="115" style="stroke:#000000;stroke-width:1" />
    <line x1="471" y1="129" x2="471" y2="115" style="stroke:#000000;stroke-width:1" />
    <line x1="672" y1="129" x2="672" y2="21" style="stroke:#000000;stroke-width:1" />
    <line x1="618" y1="129" x2="618" y2="75" style="stroke:#000000;stroke-width:1" />
    <line x1="591" y1="129" x2="591" y2="102" style="stroke:#000000;stroke-width:1" />
    <line x1="645" y1="129" x2="645" y2="102" style="stroke:#000000;stroke-width:1" />
    <line x1="658" y1="129" x2="658" y2="115" style="stroke:#000000;stroke-width:1" />
    <line x1="631" y1="129" x2="631" y2="115" style="stroke:#000000;stroke-width:1" />
    <line x1="605" y1="129" x2="605" y2="115" style="stroke:#000000;stroke-width:1" />
    <line x1="578" y1="129" x2="578" y2="115" style="stroke:#000000;stroke-width:1" />
    <line x1="672" y1="21" x2="564" y2="21" style="stroke:#000000;stroke-width:1" />
    <line x1="672" y1="75" x2="618" y2="75" style="stroke:#000000;stroke-width:1" />
    <line x1="672" y1="102" x2="645" y2="102" style="stroke:#000000;stroke-width:1" />
    <line x1="672" y1="48" x2="645" y2="48" style="stroke:#000000;stroke-width:1" />
    <line x1="672" y1="35" x2="658" y2="35" style="stroke:#000000;stroke-width:1" />
    <line x1="672" y1="62" x2="658" y2="62" style="stroke:#000000;stroke-width:1" />
    <line x1="672" y1="88" x2="658" y2="88" style="stroke:#000000;stroke-width:1" />
    <line x1="672" y1="115" x2="658" y2="115" style="stroke:#000000;stroke-width:1" />
    <line x1="661" y1="21" x2="661" y2="32" style="stroke:#000000;stroke-width:1" />
    <line x1="650" y1="21" x2="650" y2="32" style="stroke:#000000;stroke-width:1" />
    <line x1="639" y1="21" x2="639" y2="32" style="stroke:#000000;stroke-width:1" />
    <line x1="629" y1="21" x2="629" y2="32" style="stroke:#000000;stroke-width:1" />
    <line x1="618" y1="21" x2="618" y2="32" style="stroke:#000000;stroke-width:1" />
    <line x1="618" y1="21" x2="618" y2="43" style="stroke:#000000;stroke-width:1" />
    <line x1="607" y1="21" x2="607" y2="32" style="stroke:#000000;stroke-width:1" />
    <line x1="597" y1="21" x2="597" y2="32" style="stroke:#000000;stroke-width:1" />
    <line x1="586" y1="21" x2="586" y2="32" style="stroke:#000000;stroke-width:1" />
    <line x1="575" y1="21" x2="575" y2="32" style="stroke:#000000;stroke-width:1" />
    <line x1="564" y1="21" x2="564" y2="43" style="stroke:#000000;stroke-width:1" />
    <line x1="554" y1="21" x2="554" y2="32" style="stroke:#000000;stroke-width:1" />
    <line x1="543" y1="21" x2="543" y2="32" style="stroke:#000000;stroke-width:1" />
    <line x1="532" y1="21" x2="532" y2="32" style="stroke:#000000;stroke-width:1" />
    <line x1="521" y1="21" x2="521" y2="32" style="stroke:#000000;stroke-width:1" />
    <line x1="511" y1="21" x2="511" y2="32" style="stroke:#000000;stroke-width:1" />
    <line x1="511" y1="21" x2="511" y2="43" style="stroke:#000000;stroke-width:1" />
    <line x1="500" y1="21" x2="500" y2="32" style="stroke:#000000;stroke-width:1" />
    <line x1="489" y1="21" x2="489" y2="32" style="stroke:#000000;stroke-width:1" />
    <line x1="479" y1="21" x2="479" y2="32" style="stroke:#000000;stroke-width:1" />
    <line x1="468" y1="21" x2="468" y2="32" style="stroke:#000000;stroke-width:1" />
    <line x1="457" y1="21" x2="457" y2="43" style="stroke:#000000;stroke-width:1" />
    <line x1="446" y1="21" x2="446" y2="32" style="stroke:#000000;stroke-width:1" />
    <line x1="436" y1="21" x2="436" y2="32" style="stroke:#000000;stroke-width:1" />
    <line x1="425" y1="21" x2="425" y2="32" style="stroke:#000000;stroke-width:1" />
    <line x1="414" y1="21" x2="414" y2="32" style="stroke:#000000;stroke-width:1" />
    <line x1="404" y1="21" x2="404" y2="32" style="stroke:#000000;stroke-width:1" />
    <line x1="404" y1="21" x2="404" y2="43" style="stroke:#000000;stroke-width:1" />
    <line x1="393" y1="21" x2="393" y2="32" style="stroke:#000000;stroke-width:1" />
    <line x1="382" y1="21" x2="382" y2="32" style="stroke:#000000;stroke-width:1" />
    <line x1="371" y1="21" x2="371" y2="32" style="stroke:#000000;stroke-width:1" />
    <line x1="361" y1="21" x2="361" y2="32" style="stroke:#000000;stroke-width:1" />
    <line x1="350" y1="21" x2="350" y2="43" style="stroke:#000000;stroke-width:1" />
    <line x1="339" y1="21" x2="339" y2="32" style="stroke:#000000;stroke-width:1" />
    <line x1="329" y1="21" x2="329" y2="32" style="stroke:#000000;stroke-width:1" />
    <line x1="318" y1="21" x2="318" y2="32" style="stroke:#000000;stroke-width:1" />
    <line x1="307" y1="21" x2="307" y2="32" style="stroke:#000000;stroke-width:1" />
    <line x1="296" y1="21" x2="296" y2="32" style="stroke:#000000;stroke-width:1" />
    <line x1="296" y1="21" x2="296" y2="43" style="stroke:#000000;stroke-width:1" />
    <line x1="286" y1="21" x2="286" y2="32" style="stroke:#000000;stroke-width:1" />
    <line x1="275" y1="21" x2="275" y2="32" style="stroke:#000000;stroke-width:1" />
    <line x1="264" y1="21" x2="264" y2="32" style="stroke:#000000;stroke-width:1" />
    <line x1="254" y1="21" x2="254" y2="32" style="stroke:#000000;stroke-width:1" />
    <line x1="243" y1="21" x2="243" y2="43" style="stroke:#000000;stroke-width:1" />
    <line x1="232" y1="21" x2="232" y2="32" style="stroke:#000000;stroke-width:1" />
    <line x1="221" y1="21" x2="221" y2="32" style="stroke:#000000;stroke-width:1" />
    <line x1="211" y1="21" x2="211" y2="32" style="stroke:#000000;stroke-width:1" />
    <line x1="200" y1="21" x2="200" y2="32" style="stroke:#000000;stroke-width:1" />
    <line x1="189" y1="21" x2="189" y2="32" style="stroke:#000000;stroke-width:1" />
    <line x1="189" y1="21" x2="189" y2="43" style="stroke:#000000;stroke-width:1" />
    <line x1="179" y1="21" x2="179" y2="32" style="stroke:#000000;stroke-width:1" />
    <line x1="168" y1="21" x2="168" y2="32" style="stroke:#000000;stroke-width:1" />
    <line x1="157" y1="21" x2="157" y2="32" style="stroke:#000000;stroke-width:1" />
    <line x1="146" y1="21" x2="146" y2="32" style="stroke:#000000;stroke-width:1" />
    <line x1="136" y1="21" x2="136" y2="43" style="stroke:#000000;stroke-width:1" />
    <line x1="125" y1="21" x2="125" y2="32" style="stroke:#000000;stroke-width:1" />
    <line x1="114" y1="21" x2="114" y2="32" style="stroke:#000000;stroke-width:1" />
    <line x1="103" y1="21" x2="103" y2="32" style="stroke:#000000;stroke-width:1" />
    <line x1="93" y1="21" x2="93" y2="32" style="stroke:#000000;stroke-width:1" />
    <line x1="82" y1="21" x2="82" y2="32" style="stroke:#000000;stroke-width:1" />
    <line x1="82" y1="21" x2="82" y2="43" style="stroke:#000000;stroke-width:1" />
    <line x1="71" y1="21" x2="71" y2="32" style="stroke:#000000;stroke-width:1" />
    <line x1="61" y1="21" x2="61" y2="32" style="stroke:#000000;stroke-width:1" />
    <line x1="50" y1="21" x2="50" y2="32" style="stroke:#000000;stroke-width:1" />
    <line x1="39" y1="21" x2="39" y2="32" style="stroke:#000000;stroke-width:1" />
    <line x1="28" y1="21" x2="28" y2="43" style="stroke:#000000;stroke-width:1" />
    <line x1="28" y1="32" x2="39" y2="32" style="stroke:#000000;stroke-width:1" />
    <line x1="28" y1="43" x2="39" y2="43" style="stroke:#000000;stroke-width:1" />
    <line x1="28" y1="54" x2="39" y2="54" style="stroke:#000000;stroke-width:1" />
    <line x1="28" y1="64" x2="39" y2="64" style="stroke:#000000;stroke-width:1" />
    <line x1="28" y1="75" x2="39" y2="75" style="stroke:#000000;stroke-width:1" />
    <line x1="28" y1="75" x2="50" y2="75" style="stroke:#000000;stroke-width:1" />
    <line x1="28" y1="86" x2="39" y2="86" style="stroke:#000000;stroke-width:1" />
    <line x1="28" y1="96" x2="39" y2="96" style="stroke:#000000;stroke-width:1" />
    <line x1="28" y1="107" x2="39" y2="107" style="stroke:#000000;stroke-width:1" />
    <line x1="28" y1="118" x2="39" y2="118" style="stroke:#000000;stroke-width:1" />
    <line x1="28" y1="129" x2="50" y2="129" style="stroke:#000000;stroke-width:1" />
	<path d = "M28 129 L28 21 L136 21 L243 21 L350 21 L457 21 L564 21 L672 21 L672 129 L564 129 L457 129 L350 129 L243 129 L136 129 L28 129 Z" stroke = "#ff0000" stroke-width = "1" fill = "none" />    <circle cx="266" cy = "62" r = "0.9580190794631966" stroke = "#000000" stroke-width = "1" fill = "#000000" />
    <circle cx="266" cy = "60" r = "0.9580190794631966" stroke = "#000000" stroke-width = "1" fill = "#000000" />
    <circle cx="266" cy = "58" r = "0.9580190794631966" stroke = "#000000" stroke-width = "1" fill = "#000000" />
    <circle cx="266" cy = "56" r = "0.9580190794631966" stroke = "#000000" stroke-width = "1" fill = "#000000" />
    <circle cx="266" cy = "54" r = "0.9580190794631966" stroke = "#000000" stroke-width = "1" fill = "#000000" />
    <circle cx="266" cy = "52" r = "0.9580190794631966" stroke = "#000000" stroke-width = "1" fill = "#000000" />
    <circle cx="268" cy = "64" r = "0.9580190794631966" stroke = "#000000" stroke-width = "1" fill = "#000000" />
    <circle cx="270" cy = "62" r = "0.9580190794631966" stroke = "#000000" stroke-width = "1" fill = "#000000" />
    <circle cx="270" cy = "60" r = "0.9580190794631966" stroke = "#000000" stroke-width = "1" fill = "#000000" />
    <circle cx="270" cy = "58" r = "0.9580190794631966" stroke = "#000000" stroke-width = "1" fill = "#000000" />
    <circle cx="272" cy = "64" r = "0.9580190794631966" stroke = "#000000" stroke-width = "1" fill = "#000000" />
    <circle cx="274" cy = "62" r = "0.9580190794631966" stroke = "#000000" stroke-width = "1" fill = "#000000" />
    <circle cx="274" cy = "60" r = "0.9580190794631966" stroke = "#000000" stroke-width = "1" fill = "#000000" />
    <circle cx="274" cy = "58" r = "0.9580190794631966" stroke = "#000000" stroke-width = "1" fill = "#000000" />
    <circle cx="274" cy = "56" r = "0.9580190794631966" stroke = "#000000" stroke-width = "1" fill = "#000000" />
    <circle cx="274" cy = "54" r = "0.9580190794631966" stroke = "#000000" stroke-width = "1" fill = "#000000" />
    <circle cx="274" cy = "52" r = "0.9580190794631966" stroke = "#000000" stroke-width = "1" fill = "#000000" />
    <circle cx="277" cy = "62" r = "0.9580190794631966" stroke = "#000000" stroke-width = "1" fill = "#000000" />
    <circle cx="277" cy = "60" r = "0.9580190794631966" stroke = "#000000" stroke-width = "1" fill = "#000000" />
    <circle cx="277" cy = "58" r = "0.9580190794631966" stroke = "#000000" stroke-width = "1" fill = "#000000" />
    <circle cx="277" cy = "56" r = "0.9580190794631966" stroke = "#000000" stroke-width = "1" fill = "#000000" />
    <circle cx="277" cy = "54" r = "0.9580190794631966" stroke = "#000000" stroke-width = "1" fill = "#000000" />
    <circle cx="277" cy = "52" r = "0.9580190794631966" stroke = "#000000" stroke-width = "1" fill = "#000000" />
    <circle cx="279" cy = "64" r = "0.9580190794631966" stroke = "#000000" stroke-width = "1" fill = "#000000" />
    <circle cx="281" cy = "62" r = "0.9580190794631966" stroke = "#000000" stroke-width = "1" fill = "#000000" />
    <circle cx="281" cy = "60" r = "0.9580190794631966" stroke = "#000000" stroke-width = "1" fill = "#000000" />
    <circle cx="281" cy = "58" r = "0.9580190794631966" stroke = "#000000" stroke-width = "1" fill = "#000000" />
    <circle cx="283" cy = "64" r = "0.9580190794631966" stroke = "#000000" stroke-width = "1" fill = "#000000" />
    <circle cx="285" cy = "62" r = "0.9580190794631966" stroke = "#000000" stroke-width = "1" fill = "#000000" />
    <circle cx="285" cy = "60" r = "0.9580190794631966" stroke = "#000000" stroke-width = "1" fill = "#000000" />
    <circle cx="285" cy = "58" r = "0.9580190794631966" stroke = "#000000" stroke-width = "1" fill = "#000000" />
    <circle cx="285" cy = "56" r = "0.9580190794631966" stroke = "#000000" stroke-width = "1" fill = "#000000" />
    <circle cx="285" cy = "54" r = "0.9580190794631966" stroke = "#000000" stroke-width = "1" fill = "#000000" />
    <circle cx="285" cy = "52" r = "0.9580190794631966" stroke = "#000000" stroke-width = "1" fill = "#000000" />
    <circle cx="289" cy = "62" r = "0.9580190794631966" stroke = "#000000" stroke-width = "1" fill = "#000000" />
    <circle cx="289" cy = "60" r = "0.9580190794631966" stroke = "#000000" stroke-width = "1" fill = "#000000" />
    <circle cx="289" cy = "58" r = "0.9580190794631966" stroke = "#000000" stroke-width = "1" fill = "#000000" />
    <circle cx="289" cy = "56" r = "0.9580190794631966" stroke = "#000000" stroke-width = "1" fill = "#000000" />
    <circle cx="289" cy = "54" r = "0.9580190794631966" stroke = "#000000" stroke-width = "1" fill = "#000000" />
    <circle cx="289" cy = "52" r = "0.9580190794631966" stroke = "#000000" stroke-width = "1" fill = "#000000" />
    <circle cx="291" cy = "64" r = "0.9580190794631966" stroke = "#000000" stroke-width = "1" fill = "#000000" />
    <circle cx="293" cy = "62" r = "0.9580190794631966" stroke = "#000000" stroke-width = "1" fill = "#000000" />
    <circle cx="293" cy = "60" r = "0.9580190794631966" stroke = "#000000" stroke-width = "1" fill = "#000000" />
    <circle cx="293" cy = "58" r = "0.9580190794631966" stroke = "#000000" stroke-width = "1" fill = "#000000" />
    <circle cx="295" cy = "64" r = "0.9580190794631966" stroke = "#000000" stroke-width = "1" fill = "#000000" />
    <circle cx="297" cy = "62" r = "0.9580190794631966" stroke = "#000000" stroke-width = "1" fill = "#000000" />
    <circle cx="297" cy = "60" r = "0.9580190794631966" stroke = "#000000" stroke-width = "1" fill = "#000000" />
    <circle cx="297" cy = "58" r = "0.9580190794631966" stroke = "#000000" stroke-width = "1" fill = "#000000" />
    <circle cx="297" cy = "56" r = "0.9580190794631966" stroke = "#000000" stroke-width = "1" fill = "#000000" />
    <circle cx="297" cy = "54" r = "0.9580190794631966" stroke = "#000000" stroke-width = "1" fill = "#000000" />
    <circle cx="297" cy = "52" r = "0.9580190794631966" stroke = "#000000" stroke-width = "1" fill = "#000000" />
    <circle cx="304" cy = "64" r = "0.9580190794631966" stroke = "#000000" stroke-width = "1" fill = "#000000" />
    <circle cx="304" cy = "62" r = "0.9580190794631966" stroke = "#000000" stroke-width = "1" fill = "#000000" />
    <circle cx="306" cy = "62" r = "0.9580190794631966" stroke = "#000000" stroke-width = "1" fill = "#000000" />
    <circle cx="306" cy = "64" r = "0.9580190794631966" stroke = "#000000" stroke-width = "1" fill = "#000000" />
    <circle cx="312" cy = "52" r = "0.9580190794631966" stroke = "#000000" stroke-width = "1" fill = "#000000" />
    <circle cx="314" cy = "52" r = "0.9580190794631966" stroke = "#000000" stroke-width = "1" fill = "#000000" />
    <circle cx="316" cy = "52" r = "0.9580190794631966" stroke = "#000000" stroke-width = "1" fill = "#000000" />
    <circle cx="318" cy = "52" r = "0.9580190794631966" stroke = "#000000" stroke-width = "1" fill = "#000000" />
    <circle cx="320" cy = "52" r = "0.9580190794631966" stroke = "#000000" stroke-width = "1" fill = "#000000" />
    <circle cx="316" cy = "54" r = "0.9580190794631966" stroke = "#000000" stroke-width = "1" fill = "#000000" />
    <circle cx="316" cy = "56" r = "0.9580190794631966" stroke = "#000000" stroke-width = "1" fill = "#000000" />
    <circle cx="316" cy = "58" r = "0.9580190794631966" stroke = "#000000" stroke-width = "1" fill = "#000000" />
    <circle cx="316" cy = "60" r = "0.9580190794631966" stroke = "#000000" stroke-width = "1" fill = "#000000" />
    <circle cx="316" cy = "62" r = "0.9580190794631966" stroke = "#000000" stroke-width = "1" fill = "#000000" />
    <circle cx="316" cy = "64" r = "0.9580190794631966" stroke = "#000000" stroke-width = "1" fill = "#000000" />
    <circle cx="323" cy = "64" r = "0.9580190794631966" stroke = "#000000" stroke-width = "1" fill = "#000000" />
    <circle cx="323" cy = "62" r = "0.9580190794631966" stroke = "#000000" stroke-width = "1" fill = "#000000" />
    <circle cx="323" cy = "60" r = "0.9580190794631966" stroke = "#000000" stroke-width = "1" fill = "#000000" />
    <circle cx="323" cy = "58" r = "0.9580190794631966" stroke = "#000000" stroke-width = "1" fill = "#000000" />
    <circle cx="323" cy = "56" r = "0.9580190794631966" stroke = "#000000" stroke-width = "1" fill = "#000000" />
    <circle cx="323" cy = "54" r = "0.9580190794631966" stroke = "#000000" stroke-width = "1" fill = "#000000" />
    <circle cx="323" cy = "52" r = "0.9580190794631966" stroke = "#000000" stroke-width = "1" fill = "#000000" />
    <circle cx="325" cy = "58" r = "0.9580190794631966" stroke = "#000000" stroke-width = "1" fill = "#000000" />
    <circle cx="327" cy = "58" r = "0.9580190794631966" stroke = "#000000" stroke-width = "1" fill = "#000000" />
    <circle cx="329" cy = "58" r = "0.9580190794631966" stroke = "#000000" stroke-width = "1" fill = "#000000" />
    <circle cx="331" cy = "58" r = "0.9580190794631966" stroke = "#000000" stroke-width = "1" fill = "#000000" />
    <circle cx="331" cy = "56" r = "0.9580190794631966" stroke = "#000000" stroke-width = "1" fill = "#000000" />
    <circle cx="331" cy = "54" r = "0.9580190794631966" stroke = "#000000" stroke-width = "1" fill = "#000000" />
    <circle cx="331" cy = "52" r = "0.9580190794631966" stroke = "#000000" stroke-width = "1" fill = "#000000" />
    <circle cx="331" cy = "60" r = "0.9580190794631966" stroke = "#000000" stroke-width = "1" fill = "#000000" />
    <circle cx="331" cy = "62" r = "0.9580190794631966" stroke = "#000000" stroke-width = "1" fill = "#000000" />
    <circle cx="331" cy = "64" r = "0.9580190794631966" stroke = "#000000" stroke-width = "1" fill = "#000000" />
    <circle cx="335" cy = "64" r = "0.9580190794631966" stroke = "#000000" stroke-width = "1" fill = "#000000" />
    <circle cx="335" cy = "62" r = "0.9580190794631966" stroke = "#000000" stroke-width = "1" fill = "#000000" />
    <circle cx="335" cy = "60" r = "0.9580190794631966" stroke = "#000000" stroke-width = "1" fill = "#000000" />
    <circle cx="335" cy = "58" r = "0.9580190794631966" stroke = "#000000" stroke-width = "1" fill = "#000000" />
    <circle cx="335" cy = "56" r = "0.9580190794631966" stroke = "#000000" stroke-width = "1" fill = "#000000" />
    <circle cx="335" cy = "54" r = "0.9580190794631966" stroke = "#000000" stroke-width = "1" fill = "#000000" />
    <circle cx="335" cy = "52" r = "0.9580190794631966" stroke = "#000000" stroke-width = "1" fill = "#000000" />
    <circle cx="337" cy = "52" r = "0.9580190794631966" stroke = "#000000" stroke-width = "1" fill = "#000000" />
    <circle cx="339" cy = "52" r = "0.9580190794631966" stroke = "#000000" stroke-width = "1" fill = "#000000" />
    <circle cx="341" cy = "52" r = "0.9580190794631966" stroke = "#000000" stroke-width = "1" fill = "#000000" />
    <circle cx="343" cy = "52" r = "0.9580190794631966" stroke = "#000000" stroke-width = "1" fill = "#000000" />
    <circle cx="339" cy = "58" r = "0.9580190794631966" stroke = "#000000" stroke-width = "1" fill = "#000000" />
    <circle cx="337" cy = "58" r = "0.9580190794631966" stroke = "#000000" stroke-width = "1" fill = "#000000" />
    <circle cx="337" cy = "64" r = "0.9580190794631966" stroke = "#000000" stroke-width = "1" fill = "#000000" />
    <circle cx="339" cy = "64" r = "0.9580190794631966" stroke = "#000000" stroke-width = "1" fill = "#000000" />
    <circle cx="341" cy = "64" r = "0.9580190794631966" stroke = "#000000" stroke-width = "1" fill = "#000000" />
    <circle cx="343" cy = "64" r = "0.9580190794631966" stroke = "#000000" stroke-width = "1" fill = "#000000" />
    <circle cx="346" cy = "60" r = "0.9580190794631966" stroke = "#000000" stroke-width = "1" fill = "#000000" />
    <circle cx="348" cy = "60" r = "0.9580190794631966" stroke = "#000000" stroke-width = "1" fill = "#000000" />
    <circle cx="350" cy = "60" r = "0.9580190794631966" stroke = "#000000" stroke-width = "1" fill = "#000000" />
    <circle cx="352" cy = "60" r = "0.9580190794631966" stroke = "#000000" stroke-width = "1" fill = "#000000" />
    <circle cx="354" cy = "60" r = "0.9580190794631966" stroke = "#000000" stroke-width = "1" fill = "#000000" />
    <circle cx="358" cy = "62" r = "0.9580190794631966" stroke = "#000000" stroke-width = "1" fill = "#000000" />
    <circle cx="358" cy = "60" r = "0.9580190794631966" stroke = "#000000" stroke-width = "1" fill = "#000000" />
    <circle cx="358" cy = "58" r = "0.9580190794631966" stroke = "#000000" stroke-width = "1" fill = "#000000" />
    <circle cx="358" cy = "56" r = "0.9580190794631966" stroke = "#000000" stroke-width = "1" fill = "#000000" />
    <circle cx="358" cy = "54" r = "0.9580190794631966" stroke = "#000000" stroke-width = "1" fill = "#000000" />
    <circle cx="358" cy = "52" r = "0.9580190794631966" stroke = "#000000" stroke-width = "1" fill = "#000000" />
    <circle cx="360" cy = "64" r = "0.9580190794631966" stroke = "#000000" stroke-width = "1" fill = "#000000" />
    <circle cx="362" cy = "64" r = "0.9580190794631966" stroke = "#000000" stroke-width = "1" fill = "#000000" />
    <circle cx="364" cy = "64" r = "0.9580190794631966" stroke = "#000000" stroke-width = "1" fill = "#000000" />
    <circle cx="366" cy = "62" r = "0.9580190794631966" stroke = "#000000" stroke-width = "1" fill = "#000000" />
    <circle cx="366" cy = "60" r = "0.9580190794631966" stroke = "#000000" stroke-width = "1" fill = "#000000" />
    <circle cx="366" cy = "58" r = "0.9580190794631966" stroke = "#000000" stroke-width = "1" fill = "#000000" />
    <circle cx="366" cy = "56" r = "0.9580190794631966" stroke = "#000000" stroke-width = "1" fill = "#000000" />
    <circle cx="366" cy = "54" r = "0.9580190794631966" stroke = "#000000" stroke-width = "1" fill = "#000000" />
    <circle cx="366" cy = "52" r = "0.9580190794631966" stroke = "#000000" stroke-width = "1" fill = "#000000" />
    <circle cx="369" cy = "64" r = "0.9580190794631966" stroke = "#000000" stroke-width = "1" fill = "#000000" />
    <circle cx="369" cy = "62" r = "0.9580190794631966" stroke = "#000000" stroke-width = "1" fill = "#000000" />
    <circle cx="369" cy = "60" r = "0.9580190794631966" stroke = "#000000" stroke-width = "1" fill = "#000000" />
    <circle cx="369" cy = "58" r = "0.9580190794631966" stroke = "#000000" stroke-width = "1" fill = "#000000" />
    <circle cx="369" cy = "56" r = "0.9580190794631966" stroke = "#000000" stroke-width = "1" fill = "#000000" />
    <circle cx="369" cy = "54" r = "0.9580190794631966" stroke = "#000000" stroke-width = "1" fill = "#000000" />
    <circle cx="369" cy = "52" r = "0.9580190794631966" stroke = "#000000" stroke-width = "1" fill = "#000000" />
    <circle cx="371" cy = "56" r = "0.9580190794631966" stroke = "#000000" stroke-width = "1" fill = "#000000" />
    <circle cx="373" cy = "58" r = "0.9580190794631966" stroke = "#000000" stroke-width = "1" fill = "#000000" />
    <circle cx="375" cy = "60" r = "0.9580190794631966" stroke = "#000000" stroke-width = "1" fill = "#000000" />
    <circle cx="377" cy = "62" r = "0.9580190794631966" stroke = "#000000" stroke-width = "1" fill = "#000000" />
    <circle cx="377" cy = "64" r = "0.9580190794631966" stroke = "#000000" stroke-width = "1" fill = "#000000" />
    <circle cx="377" cy = "60" r = "0.9580190794631966" stroke = "#000000" stroke-width = "1" fill = "#000000" />
    <circle cx="377" cy = "58" r = "0.9580190794631966" stroke = "#000000" stroke-width = "1" fill = "#000000" />
    <circle cx="377" cy = "56" r = "0.9580190794631966" stroke = "#000000" stroke-width = "1" fill = "#000000" />
    <circle cx="377" cy = "54" r = "0.9580190794631966" stroke = "#000000" stroke-width = "1" fill = "#000000" />
    <circle cx="377" cy = "52" r = "0.9580190794631966" stroke = "#000000" stroke-width = "1" fill = "#000000" />
    <circle cx="383" cy = "64" r = "0.9580190794631966" stroke = "#000000" stroke-width = "1" fill = "#000000" />
    <circle cx="385" cy = "64" r = "0.9580190794631966" stroke = "#000000" stroke-width = "1" fill = "#000000" />
    <circle cx="387" cy = "64" r = "0.9580190794631966" stroke = "#000000" stroke-width = "1" fill = "#000000" />
    <circle cx="385" cy = "62" r = "0.9580190794631966" stroke = "#000000" stroke-width = "1" fill = "#000000" />
    <circle cx="385" cy = "60" r = "0.9580190794631966" stroke = "#000000" stroke-width = "1" fill = "#000000" />
    <circle cx="385" cy = "58" r = "0.9580190794631966" stroke = "#000000" stroke-width = "1" fill = "#000000" />
    <circle cx="385" cy = "56" r = "0.9580190794631966" stroke = "#000000" stroke-width = "1" fill = "#000000" />
    <circle cx="385" cy = "54" r = "0.9580190794631966" stroke = "#000000" stroke-width = "1" fill = "#000000" />
    <circle cx="385" cy = "52" r = "0.9580190794631966" stroke = "#000000" stroke-width = "1" fill = "#000000" />
    <circle cx="383" cy = "52" r = "0.9580190794631966" stroke = "#000000" stroke-width = "1" fill = "#000000" />
    <circle cx="387" cy = "52" r = "0.9580190794631966" stroke = "#000000" stroke-width = "1" fill = "#000000" />
    <circle cx="392" cy = "52" r = "0.9580190794631966" stroke = "#000000" stroke-width = "1" fill = "#000000" />
    <circle cx="394" cy = "52" r = "0.9580190794631966" stroke = "#000000" stroke-width = "1" fill = "#000000" />
    <circle cx="396" cy = "52" r = "0.9580190794631966" stroke = "#000000" stroke-width = "1" fill = "#000000" />
    <circle cx="398" cy = "52" r = "0.9580190794631966" stroke = "#000000" stroke-width = "1" fill = "#000000" />
    <circle cx="400" cy = "52" r = "0.9580190794631966" stroke = "#000000" stroke-width = "1" fill = "#000000" />
    <circle cx="396" cy = "54" r = "0.9580190794631966" stroke = "#000000" stroke-width = "1" fill = "#000000" />
    <circle cx="396" cy = "56" r = "0.9580190794631966" stroke = "#000000" stroke-width = "1" fill = "#000000" />
    <circle cx="396" cy = "58" r = "0.9580190794631966" stroke = "#000000" stroke-width = "1" fill = "#000000" />
    <circle cx="396" cy = "60" r = "0.9580190794631966" stroke = "#000000" stroke-width = "1" fill = "#000000" />
    <circle cx="396" cy = "62" r = "0.9580190794631966" stroke = "#000000" stroke-width = "1" fill = "#000000" />
    <circle cx="396" cy = "64" r = "0.9580190794631966" stroke = "#000000" stroke-width = "1" fill = "#000000" />
    <circle cx="408" cy = "64" r = "0.9580190794631966" stroke = "#000000" stroke-width = "1" fill = "#000000" />
    <circle cx="408" cy = "62" r = "0.9580190794631966" stroke = "#000000" stroke-width = "1" fill = "#000000" />
    <circle cx="410" cy = "62" r = "0.9580190794631966" stroke = "#000000" stroke-width = "1" fill = "#000000" />
    <circle cx="410" cy = "64" r = "0.9580190794631966" stroke = "#000000" stroke-width = "1" fill = "#000000" />
    <circle cx="415" cy = "62" r = "0.9580190794631966" stroke = "#000000" stroke-width = "1" fill = "#000000" />
    <circle cx="415" cy = "60" r = "0.9580190794631966" stroke = "#000000" stroke-width = "1" fill = "#000000" />
    <circle cx="415" cy = "58" r = "0.9580190794631966" stroke = "#000000" stroke-width = "1" fill = "#000000" />
    <circle cx="415" cy = "56" r = "0.9580190794631966" stroke = "#000000" stroke-width = "1" fill = "#000000" />
    <circle cx="415" cy = "54" r = "0.9580190794631966" stroke = "#000000" stroke-width = "1" fill = "#000000" />
    <circle cx="417" cy = "52" r = "0.9580190794631966" stroke = "#000000" stroke-width = "1" fill = "#000000" />
    <circle cx="419" cy = "52" r = "0.9580190794631966" stroke = "#000000" stroke-width = "1" fill = "#000000" />
    <circle cx="421" cy = "52" r = "0.9580190794631966" stroke = "#000000" stroke-width = "1" fill = "#000000" />
    <circle cx="423" cy = "54" r = "0.9580190794631966" stroke = "#000000" stroke-width = "1" fill = "#000000" />
    <circle cx="423" cy = "56" r = "0.9580190794631966" stroke = "#000000" stroke-width = "1" fill = "#000000" />
    <circle cx="423" cy = "58" r = "0.9580190794631966" stroke = "#000000" stroke-width = "1" fill = "#000000" />
    <circle cx="423" cy = "60" r = "0.9580190794631966" stroke = "#000000" stroke-width = "1" fill = "#000000" />
    <circle cx="423" cy = "62" r = "0.9580190794631966" stroke = "#000000" stroke-width = "1" fill = "#000000" />
    <circle cx="421" cy = "64" r = "0.9580190794631966" stroke = "#000000" stroke-width = "1" fill = "#000000" />
    <circle cx="419" cy = "64" r = "0.9580190794631966" stroke = "#000000" stroke-width = "1" fill = "#000000" />
    <circle cx="417" cy = "64" r = "0.9580190794631966" stroke = "#000000" stroke-width = "1" fill = "#000000" />
    <circle cx="427" cy = "64" r = "0.9580190794631966" stroke = "#000000" stroke-width = "1" fill = "#000000" />
    <circle cx="427" cy = "62" r = "0.9580190794631966" stroke = "#000000" stroke-width = "1" fill = "#000000" />
    <circle cx="427" cy = "60" r = "0.9580190794631966" stroke = "#000000" stroke-width = "1" fill = "#000000" />
    <circle cx="427" cy = "58" r = "0.9580190794631966" stroke = "#000000" stroke-width = "1" fill = "#000000" />
    <circle cx="427" cy = "56" r = "0.9580190794631966" stroke = "#000000" stroke-width = "1" fill = "#000000" />
    <circle cx="427" cy = "54" r = "0.9580190794631966" stroke = "#000000" stroke-width = "1" fill = "#000000" />
    <circle cx="427" cy = "52" r = "0.9580190794631966" stroke = "#000000" stroke-width = "1" fill = "#000000" />
    <circle cx="429" cy = "52" r = "0.9580190794631966" stroke = "#000000" stroke-width = "1" fill = "#000000" />
    <circle cx="431" cy = "52" r = "0.9580190794631966" stroke = "#000000" stroke-width = "1" fill = "#000000" />
    <circle cx="433" cy = "52" r = "0.9580190794631966" stroke = "#000000" stroke-width = "1" fill = "#000000" />
    <circle cx="435" cy = "54" r = "0.9580190794631966" stroke = "#000000" stroke-width = "1" fill = "#000000" />
    <circle cx="435" cy = "56" r = "0.9580190794631966" stroke = "#000000" stroke-width = "1" fill = "#000000" />
    <circle cx="433" cy = "58" r = "0.9580190794631966" stroke = "#000000" stroke-width = "1" fill = "#000000" />
    <circle cx="431" cy = "58" r = "0.9580190794631966" stroke = "#000000" stroke-width = "1" fill = "#000000" />
    <circle cx="429" cy = "58" r = "0.9580190794631966" stroke = "#000000" stroke-width = "1" fill = "#000000" />
    <circle cx="431" cy = "60" r = "0.9580190794631966" stroke = "#000000" stroke-width = "1" fill = "#000000" />
    <circle cx="433" cy = "62" r = "0.9580190794631966" stroke = "#000000" stroke-width = "1" fill = "#000000" />
    <circle cx="435" cy = "64" r = "0.9580190794631966" stroke = "#000000" stroke-width = "1" fill = "#000000" />
    <circle cx="438" cy = "62" r = "0.9580190794631966" stroke = "#000000" stroke-width = "1" fill = "#000000" />
    <circle cx="438" cy = "60" r = "0.9580190794631966" stroke = "#000000" stroke-width = "1" fill = "#000000" />
    <circle cx="438" cy = "58" r = "0.9580190794631966" stroke = "#000000" stroke-width = "1" fill = "#000000" />
    <circle cx="438" cy = "56" r = "0.9580190794631966" stroke = "#000000" stroke-width = "1" fill = "#000000" />
    <circle cx="438" cy = "54" r = "0.9580190794631966" stroke = "#000000" stroke-width = "1" fill = "#000000" />
    <circle cx="440" cy = "52" r = "0.9580190794631966" stroke = "#000000" stroke-width = "1" fill = "#000000" />
    <circle cx="442" cy = "52" r = "0.9580190794631966" stroke = "#000000" stroke-width = "1" fill = "#000000" />
    <circle cx="444" cy = "52" r = "0.9580190794631966" stroke = "#000000" stroke-width = "1" fill = "#000000" />
    <circle cx="446" cy = "54" r = "0.9580190794631966" stroke = "#000000" stroke-width = "1" fill = "#000000" />
    <circle cx="444" cy = "58" r = "0.9580190794631966" stroke = "#000000" stroke-width = "1" fill = "#000000" />
    <circle cx="442" cy = "58" r = "0.9580190794631966" stroke = "#000000" stroke-width = "1" fill = "#000000" />
    <circle cx="446" cy = "58" r = "0.9580190794631966" stroke = "#000000" stroke-width = "1" fill = "#000000" />
    <circle cx="446" cy = "60" r = "0.9580190794631966" stroke = "#000000" stroke-width = "1" fill = "#000000" />
    <circle cx="446" cy = "62" r = "0.9580190794631966" stroke = "#000000" stroke-width = "1" fill = "#000000" />
    <circle cx="446" cy = "64" r = "0.9580190794631966" stroke = "#000000" stroke-width = "1" fill = "#000000" />
    <circle cx="444" cy = "64" r = "0.9580190794631966" stroke = "#000000" stroke-width = "1" fill = "#000000" />
    <circle cx="442" cy = "64" r = "0.9580190794631966" stroke = "#000000" stroke-width = "1" fill = "#000000" />
    <circle cx="440" cy = "64" r = "0.9580190794631966" stroke = "#000000" stroke-width = "1" fill = "#000000" />
</svg>