<svg width="700" height="150" viewbox = "0 0 700 150"  xmlns="http://www.w3.org/2000/svg">
<!--<json>{
  "glyph": "0332,0332,0332,0336,0331,0337,0224,0336,0336,0333,0336,0330,0333,0331,0336,0337,0337,0330,0337,0210,0210,01127,01127,01127,01056,01124,01110,01105,01055,01125,01116,01111,01124,01056,01117,01122,01107,",
  "x0": 350,
  "y0": 75,
  "unit": 97.43585500000007,
  "width": 700,
  "height": 150,
  "style": {
    "color0": "black",
    "fill0": "black",
    "line0": 1,
    "color1": "black",
    "fill1": "black",
    "line1": 3,
    "color2": "red",
    "fill2": "red",
    "line2": 1,
    "color3": "#FF7900",
    "fill3": "#FF7900",
    "line3": 1,
    "color4": "yellow",
    "fill4": "yellow",
    "line4": 1,
    "color5": "green",
    "fill5": "green",
    "line5": 1,
    "color6": "blue",
    "fill6": "blue",
    "line6": 1,
    "color7": "purple",
    "fill7": "purple",
    "line7": 1
  },
  "shapes": [
    "0220:0333,0342,",
    "0221:0316,0336,0313,0336,0220,0220,0220,0220,0220,0337,0342,0336,0220,0220,0220,0220,0333,0337,0342,0336,0337,0316,0337,0313,",
    "0222:0333,0342,0336,0332,0342,0336,0332,0342,0333,0333,0342,0336,0333,0342,0332,0332,0342,0332,0332,0342,0332,0332,0342,0332,0337,0337,0337,0333,",
    "0223:0222,0222,0222,0222,0222,0222,0334,0222,0334,0221,0221,0221,0221,0221,0221,0334,0221,0334,",
    "0224:0362,0203,0335,0203,0203,0203,0203,0203,0203,0335,0203,0335,0203,0203,0203,0203,0203,0203,0354,0335,",
    "0225:0223,0322,0224,",
    "0226:0221,0342,",
    "0227:0336,0336,0336,0336,0347,0337,0337,0337,0337,",
    "0230:0226,0226,0226,0226,0226,0226,0226,0226,0226,0226,0226,0226,0226,0226,0226,0334,0226,0226,0334,0226,0226,0226,0226,0226,0226,0226,0226,0226,0226,0226,0226,0226,0226,0226,0334,0226,0226,0330,0332,0201,0201,0201,0201,0201,0201,0201,0201,0201,0201,0201,0201,0201,0331,0331,0331,0331,0227,0331,0331,0331,0331,0331,0227,0331,0331,0331,0331,0331,0334,0331,",
    "0231:0362,0203,0203,0335,0203,0203,0203,0203,0203,0203,0203,0203,0203,0203,0203,0203,0203,0203,0203,0335,0203,0203,0335,0203,0203,0203,0203,0203,0203,0203,0203,0203,0203,0203,0203,0203,0203,0203,0354,0335,",
    "0232:0320,0230,0322,0231,",
    "0234:0127,0127,0127,056,0124,0110,0105,055,0125,0116,0111,0124,056,0117,0122,0107,0365,",
    "0235:0225,0370,0336,0336,0320,0330,0333,0333,0330,0333,0333,0333,0330,0333,0332,0336,0332,0336,0332,0332,0332,0332,0332,0332,0332,0332,0337,0337,0211,0333,0333,0333,0331,0336,0333,0333,0333,0333,0333,0330,0177,01127,01127,01127,01056,01124,01110,01105,01055,01125,01116,01111,01124,01056,01117,01122,01107,0371,",
    "0236:0336,0232,0370,0336,0336,0320,0330,0333,0333,0330,0333,0333,0333,0330,0333,0332,0336,0332,0336,0332,0332,0332,0332,0332,0332,0332,0332,0337,0337,0211,0333,0333,0333,0331,0336,0333,0333,0333,0333,0333,0330,0177,0337,0330,0330,0333,0333,0330,0333,0333,0333,0333,0333,0333,0333,0333,0333,0333,0337,0210,0210,0210,0333,0336,0331,0332,0337,0332,0332,0336,0333,0337,01127,01127,01127,01056,01124,01110,01105,01055,01125,01116,01111,01124,01056,01117,01122,01107,0371,0337,",
    "0237:0333,0330,0333,0320,0331,0333,0336,0330,0333,0332,0332,0332,0332,0332,0332,0336,0331,0333,0337,0234,0332,0336,0331,0332,0337,0337,0337,",
    "01220:0333,0200,0332,0336,0220,0333,0337,",
    "01221:0221,0200,",
    "01222:0222,0200,",
    "01223:0333,0200,0332,0336,0330,0336,0336,0331,0333,0330,0223,0331,0331,0331,0331,0332,0337,0337,0337,0333,",
    "01224:0333,0200,0332,0336,0330,0336,0336,0331,0333,0330,0224,0332,0337,0337,0331,0337,0333,",
    "01225:0333,0200,0332,0336,0330,0336,0331,0333,0330,0336,0331,0332,0225,0332,0330,0337,0337,0331,0337,0333,0320,",
    "01226:0333,0200,0332,0226,",
    "01227:0333,0200,0336,0330,0332,0227,0331,0333,0337,",
    "01230:0333,0330,0332,0336,0331,0333,0336,0230,0337,0331,0333,0337,0336,0333,0337,0333,0333,0333,",
    "01231:0336,0333,0231,0337,0333,0333,0333,0333,0333,0333,0333,0333,",
    "01232:0336,0333,0232,0337,0333,0333,0333,0333,0333,0333,0333,0333,0320,",
    "01233:0333,0200,",
    "01234:0333,0200,",
    "01235:0336,0333,0337,0235,0333,0333,0333,0333,0333,0333,0336,0333,0337,",
    "01236:0336,0333,0337,0236,0333,0333,0333,0333,0333,0333,0333,0333,",
    "01237:0333,0200,",
    "0240:0220,0336,0331,0333,0336,0321,0335,0342,0335,0335,0342,0335,0330,0330,0332,0332,0337,0337,",
    "01240:0333,0200,0336,0330,0332,0210,0240,0211,0333,0331,0337,",
    "0241:0220,0336,0321,0343,0332,0350,0335,0336,0342,0334,0334,0342,0335,0304,0337,0333,0337,",
    "01241:0333,0200,0336,0332,0330,0210,0241,0211,0333,0331,0337,",
    "0242:0220,0321,0336,0343,0333,0336,0350,0335,0342,0334,0334,0342,0335,0337,0304,0332,0337,",
    "01242:0333,0200,0336,0330,0332,0210,0242,0211,0333,0331,0337,",
    "0243:0220,0336,0331,0332,0336,0321,0343,0332,0350,0334,0336,0342,0335,0335,0342,0337,0334,0334,0335,0304,0332,0330,0330,0337,0337,0333,",
    "01243:0333,0200,0336,0330,0332,0210,0243,0211,0333,0331,0337,",
    "0244:0220,0336,0331,0333,0336,0321,0343,0333,0350,0336,0335,0342,0334,0334,0342,0335,0337,0304,0333,0330,0330,0337,0337,0332,",
    "01244:0333,0200,0336,0330,0332,0210,0244,0211,0333,0331,0337,",
    "0245:0210,0332,0332,0362,0335,0203,0203,0203,0203,0334,0203,0363,0332,0332,0331,0211,",
    "01245:0333,0200,0336,0330,0332,0336,0245,0337,0333,0331,0337,",
    "0246:0210,0332,0332,0335,0306,0336,0330,0335,0335,0335,0321,0362,0203,0335,0335,0203,0364,0331,0350,0335,0337,0366,0333,0333,0333,0333,0334,0334,0334,0334,0367,0335,0336,0342,0334,0334,0342,0330,0330,0330,0330,0335,0335,0335,0304,0337,0211,",
    "01246:0333,0200,0336,0330,0332,0336,0246,",
    "0247:0330,0332,0336,0332,0336,0221,0333,0333,0333,0222,0333,0333,0333,0223,0333,0333,0333,0225,0333,0331,0331,0331,0332,0332,0332,0332,0332,0332,0332,0332,0332,0332,0332,0332,0333,0333,0226,0331,0331,0331,0333,0333,0333,0333,0333,0333,0333,0333,0333,0333,0333,0333,0333,0330,0333,0330,0330,0333,0330,0331,0332,0332,0332,0332,0332,0332,0332,0332,0332,0332,0332,0332,0227,0333,0333,0333,0230,0333,0331,0331,0331,0331,0332,0332,0332,0330,0332,0332,0332,0332,0332,0332,0333,0333,0231,0333,0333,0333,0232,0331,0333,0330,0333,0333,0233,0333,0333,0333,0234,0330,0330,0332,0330,0332,0332,0337,0337,",
    "01247:0333,0200,0336,0330,0332,0220,0336,0247,0337,0331,0333,0337,"
  ]
}</json>-->	<path d = "M58 124 L58 26 L155 26 L253 26 L350 26 L447 26 L545 26 L642 26 L642 124 L545 124 L447 124 L350 124 L253 124 L155 124 L58 124 Z" stroke = "#000000" stroke-width = "1" fill = "none" />	<path d = "M103 99 L98 95 L98 91 L98 87 L98 83 L98 79 L98 75 L98 70 L98 66 L98 62 L103 62 L103 66 L103 70 L103 75 L103 79 L103 83 L103 87 L103 91 L103 95 L105 95 L105 99 L103 99 Z" stroke = "#000000" stroke-width = "1" fill = "none" />	<path d = "M109 99 L109 95 L109 91 L109 87 L113 87 L113 91 L113 95 L113 99 L109 99 Z" stroke = "#000000" stroke-width = "1" fill = "none" />	<path d = "M117 99 L117 95 L119 95 L119 91 L119 87 L119 83 L119 79 L119 75 L119 70 L119 66 L119 62 L123 62 L123 66 L123 70 L123 75 L123 79 L123 83 L123 87 L123 91 L123 95 L119 99 L117 99 Z" stroke = "#000000" stroke-width = "1" fill = "none" />	<path d = "M136 99 L131 95 L131 91 L131 87 L131 83 L131 79 L131 75 L131 70 L131 66 L131 62 L136 62 L136 66 L136 70 L136 75 L136 79 L136 83 L136 87 L136 91 L136 95 L138 95 L138 99 L136 99 Z" stroke = "#000000" stroke-width = "1" fill = "none" />	<path d = "M142 99 L142 95 L142 91 L142 87 L146 87 L146 91 L146 95 L146 99 L142 99 Z" stroke = "#000000" stroke-width = "1" fill = "none" />	<path d = "M150 99 L150 95 L152 95 L152 91 L152 87 L152 83 L152 79 L152 75 L152 70 L152 66 L152 62 L156 62 L156 66 L156 70 L156 75 L156 79 L156 83 L156 87 L156 91 L156 95 L152 99 L150 99 Z" stroke = "#000000" stroke-width = "1" fill = "none" />	<path d = "M169 99 L165 95 L165 91 L165 87 L165 83 L165 79 L165 75 L165 70 L165 66 L165 62 L169 62 L169 66 L169 70 L169 75 L169 79 L169 83 L169 87 L169 91 L169 95 L171 95 L171 99 L169 99 Z" stroke = "#000000" stroke-width = "1" fill = "none" />	<path d = "M175 99 L175 95 L175 91 L175 87 L179 87 L179 91 L179 95 L179 99 L175 99 Z" stroke = "#000000" stroke-width = "1" fill = "none" />	<path d = "M183 99 L183 95 L185 95 L185 91 L185 87 L185 83 L185 79 L185 75 L185 70 L185 66 L185 62 L189 62 L189 66 L189 70 L189 75 L189 79 L189 83 L189 87 L189 91 L189 95 L185 99 L183 99 Z" stroke = "#000000" stroke-width = "1" fill = "none" />	<path d = "M212 99 L212 95 L208 95 L208 99 L212 99 Z" stroke = "#000000" stroke-width = "1" fill = "none" />	<path d = "M243 99 L241 99 L241 95 L241 91 L241 87 L241 83 L241 79 L241 75 L241 70 L241 66 L237 66 L233 66 L231 66 L231 62 L235 62 L239 62 L243 62 L247 62 L251 62 L256 62 L256 66 L251 66 L247 66 L245 66 L245 70 L245 75 L245 79 L245 83 L245 87 L245 91 L245 95 L245 99 L243 99 Z" stroke = "#000000" stroke-width = "1" fill = "none" />	<path d = "M264 99 L264 95 L264 91 L264 87 L264 83 L264 79 L264 75 L264 70 L264 66 L264 62 L268 62 L268 66 L268 70 L268 75 L268 79 L272 79 L274 79 L274 83 L270 83 L268 83 L268 87 L268 91 L268 95 L268 99 L264 99 Z" stroke = "#000000" stroke-width = "1" fill = "none" />	<path d = "M284 99 L284 95 L284 91 L284 87 L284 83 L280 83 L278 83 L278 79 L282 79 L284 79 L284 75 L284 70 L284 66 L284 62 L289 62 L289 66 L289 70 L289 75 L289 79 L289 83 L289 87 L289 91 L289 95 L289 99 L284 99 Z" stroke = "#000000" stroke-width = "1" fill = "none" />	<path d = "M297 99 L297 95 L297 91 L297 87 L297 83 L297 79 L297 75 L297 70 L297 66 L297 62 L301 62 L305 62 L307 62 L307 66 L303 66 L301 66 L301 70 L301 75 L301 79 L305 79 L307 79 L307 83 L303 83 L301 83 L301 87 L301 91 L301 95 L305 95 L307 95 L307 99 L303 99 L301 99 L297 99 Z" stroke = "#000000" stroke-width = "1" fill = "none" />	<path d = "M311 99 L311 95 L315 95 L320 95 L322 95 L322 99 L318 99 L313 99 L311 99 Z" stroke = "#000000" stroke-width = "1" fill = "none" />	<path d = "M311 66 L311 62 L315 62 L320 62 L322 62 L322 66 L318 66 L315 66 L313 66 L311 66 Z" stroke = "#000000" stroke-width = "1" fill = "none" />	<path d = "M334 83 L334 79 L338 79 L342 79 L346 79 L351 79 L351 83 L346 83 L342 83 L338 83 L334 83 Z" stroke = "#000000" stroke-width = "1" fill = "none" />	<path d = "M373 99 L373 95 L369 95 L367 95 L367 91 L367 87 L367 83 L367 79 L367 75 L367 70 L367 66 L367 62 L363 62 L363 66 L363 70 L363 75 L363 79 L363 83 L363 87 L363 91 L363 95 L367 99 L371 99 L373 99 Z" stroke = "#000000" stroke-width = "1" fill = "none" />	<path d = "M377 99 L377 95 L382 95 L384 95 L384 91 L384 87 L384 83 L384 79 L384 75 L384 70 L384 66 L384 62 L388 62 L388 66 L388 70 L388 75 L388 79 L388 83 L388 87 L388 91 L388 95 L384 99 L380 99 L377 99 Z" stroke = "#000000" stroke-width = "1" fill = "none" />	<path d = "M396 99 L396 95 L396 91 L396 87 L396 83 L396 79 L396 75 L396 70 L396 66 L396 62 L400 62 L400 66 L404 70 L409 75 L413 79 L417 83 L417 79 L417 75 L417 70 L417 66 L417 62 L421 62 L421 66 L421 70 L421 75 L421 79 L421 83 L421 87 L421 91 L421 95 L421 99 L417 99 L417 95 L417 91 L413 87 L409 83 L404 79 L400 75 L400 79 L400 83 L400 87 L400 91 L400 95 L400 99 L396 99 Z" stroke = "#000000" stroke-width = "1" fill = "none" />	<path d = "M431 99 L431 95 L435 95 L440 95 L440 91 L440 87 L440 83 L440 79 L440 75 L440 70 L440 66 L435 66 L431 66 L431 62 L435 62 L440 62 L444 62 L448 62 L452 62 L452 66 L448 66 L444 66 L444 70 L444 75 L444 79 L444 83 L444 87 L444 91 L444 95 L448 95 L452 95 L452 99 L448 99 L444 99 L440 99 L435 99 L431 99 Z" stroke = "#000000" stroke-width = "1" fill = "none" />	<path d = "M475 99 L473 99 L473 95 L473 91 L473 87 L473 83 L473 79 L473 75 L473 70 L473 66 L468 66 L464 66 L462 66 L462 62 L466 62 L471 62 L475 62 L479 62 L483 62 L487 62 L487 66 L483 66 L479 66 L477 66 L477 70 L477 75 L477 79 L477 83 L477 87 L477 91 L477 95 L477 99 L475 99 Z" stroke = "#000000" stroke-width = "1" fill = "none" />	<path d = "M510 99 L510 95 L506 95 L506 99 L510 99 Z" stroke = "#000000" stroke-width = "1" fill = "none" />	<path d = "M539 99 L539 95 L537 95 L533 91 L533 87 L533 83 L533 79 L533 75 L533 70 L537 66 L539 66 L539 62 L535 62 L533 62 L528 66 L528 70 L528 75 L528 79 L528 83 L528 87 L528 91 L528 95 L533 99 L537 99 L539 99 Z" stroke = "#000000" stroke-width = "1" fill = "none" />	<path d = "M543 99 L543 95 L545 95 L549 91 L549 87 L549 83 L549 79 L549 75 L549 70 L545 66 L543 66 L543 62 L547 62 L549 62 L553 66 L553 70 L553 75 L553 79 L553 83 L553 87 L553 91 L553 95 L549 99 L545 99 L543 99 Z" stroke = "#000000" stroke-width = "1" fill = "none" />	<path d = "M562 99 L562 95 L562 91 L562 87 L562 83 L562 79 L562 75 L562 70 L562 66 L562 62 L566 62 L566 66 L566 70 L566 75 L566 79 L566 83 L566 87 L566 91 L566 95 L566 99 L562 99 Z" stroke = "#000000" stroke-width = "1" fill = "none" />	<path d = "M570 83 L570 79 L574 79 L578 79 L582 75 L582 70 L578 66 L574 66 L570 66 L570 62 L574 62 L578 62 L582 62 L586 66 L586 70 L586 75 L586 79 L582 83 L578 83 L574 83 L570 83 Z" stroke = "#000000" stroke-width = "1" fill = "none" />	<path d = "M586 99 L586 95 L582 91 L578 87 L574 87 L574 91 L578 95 L582 99 L586 99 Z" stroke = "#000000" stroke-width = "1" fill = "none" />	<path d = "M599 99 L595 95 L595 91 L595 87 L595 83 L595 79 L595 75 L595 70 L595 66 L599 62 L603 62 L605 62 L605 66 L601 66 L599 66 L599 70 L599 75 L599 79 L599 83 L599 87 L599 91 L599 95 L603 95 L607 95 L611 95 L611 99 L607 99 L603 99 L599 99 " stroke = "#000000" stroke-width = "1" fill = "none" />	<path d = "M615 99 L615 95 L615 91 L611 91 L609 91 L609 87 L613 87 L617 87 L619 87 L619 91 L619 95 L619 99 L615 99 " stroke = "#000000" stroke-width = "1" fill = "none" />	<path d = "M619 68 L615 68 L615 66 L611 66 L609 66 L609 62 L611 62 L615 62 L619 66 L619 68 " stroke = "#000000" stroke-width = "1" fill = "none" /></svg>