<svg width="700" height="200" viewbox = "0 0 700 200"  xmlns="http://www.w3.org/2000/svg">
<!--<json>{
  "glyph": "0331,0332,0332,0332,0332,0332,0332,0332,0332,0336,0333,0337,0232,",
  "x0": 350,
  "y0": 100,
  "unit": 46.18423064076359,
  "width": 700,
  "height": 200,
  "style": {
    "color0": "black",
    "fill0": "black",
    "line0": 1,
    "color1": "black",
    "fill1": "black",
    "line1": 3,
    "color2": "red",
    "fill2": "red",
    "line2": 1,
    "color3": "#FF7900",
    "fill3": "#FF7900",
    "line3": 1,
    "color4": "yellow",
    "fill4": "yellow",
    "line4": 1,
    "color5": "green",
    "fill5": "green",
    "line5": 1,
    "color6": "blue",
    "fill6": "blue",
    "line6": 1,
    "color7": "purple",
    "fill7": "purple",
    "line7": 1
  },
  "shapes": [
    "0220:0333,0342,",
    "0221:0316,0336,0313,0336,0220,0220,0220,0220,0220,0337,0342,0336,0220,0220,0220,0220,0333,0337,0342,0336,0337,0316,0337,0313,",
    "0222:0333,0342,0336,0332,0342,0336,0332,0342,0333,0333,0342,0336,0333,0342,0332,0332,0342,0332,0332,0342,0332,0332,0342,0332,0337,0337,0337,0333,",
    "0223:0222,0222,0222,0222,0222,0222,0334,0222,0334,0221,0221,0221,0221,0221,0221,0334,0221,0334,",
    "0224:0362,0203,0335,0203,0203,0203,0203,0203,0203,0335,0203,0335,0203,0203,0203,0203,0203,0203,0354,0335,",
    "0225:0223,0322,0224,",
    "0226:0221,0342,",
    "0227:0336,0336,0336,0336,0347,0337,0337,0337,0337,",
    "0230:0226,0226,0226,0226,0226,0226,0226,0226,0226,0226,0226,0226,0226,0226,0226,0334,0226,0226,0334,0226,0226,0226,0226,0226,0226,0226,0226,0226,0226,0226,0226,0226,0226,0226,0334,0226,0226,0330,0332,0201,0201,0201,0201,0201,0201,0201,0201,0201,0201,0201,0201,0201,0331,0331,0331,0331,0227,0331,0331,0331,0331,0331,0227,0331,0331,0331,0331,0331,0334,0331,",
    "0231:0362,0203,0203,0335,0203,0203,0203,0203,0203,0203,0203,0203,0203,0203,0203,0203,0203,0203,0203,0335,0203,0203,0335,0203,0203,0203,0203,0203,0203,0203,0203,0203,0203,0203,0203,0203,0203,0203,0354,0335,",
    "0232:0230,0322,0231,",
    "01220:0333,0200,0332,0336,0220,0333,0337,",
    "01221:0221,0200,",
    "01222:0222,0200,",
    "01223:0333,0200,0332,0336,0330,0336,0336,0331,0333,0330,0223,0331,0331,0331,0331,0332,0337,0337,0337,0333,",
    "01224:0333,0200,0332,0336,0330,0336,0336,0331,0333,0330,0224,0332,0337,0337,0331,0337,0333,",
    "01225:0333,0200,0332,0336,0330,0336,0331,0333,0330,0336,0331,0332,0225,0332,0330,0337,0337,0331,0337,0333,0320,",
    "01226:0333,0200,0332,0226,",
    "01227:0333,0200,0336,0330,0332,0227,0331,0333,0337,",
    "01230:0333,0330,0332,0336,0331,0333,0336,0230,0337,0331,0333,0337,0336,0333,0337,0333,0333,0333,",
    "01231:0336,0333,0231,0337,0333,0333,0333,0333,0333,0333,0333,0333,",
    "01232:0336,0333,0232,0337,0333,0333,0333,0333,0333,0333,0333,0333,0320,",
    "01233:0333,0200,",
    "01234:0333,0200,",
    "01235:0333,0200,",
    "01236:0333,0200,",
    "01237:0333,0200,",
    "0240:0220,0336,0331,0333,0336,0321,0335,0342,0335,0335,0342,0335,0330,0330,0332,0332,0337,0337,",
    "01240:0333,0200,0336,0330,0332,0210,0240,0211,0333,0331,0337,",
    "0241:0220,0336,0321,0343,0332,0350,0335,0336,0342,0334,0334,0342,0335,0304,0337,0333,0337,",
    "01241:0333,0200,0336,0332,0330,0210,0241,0211,0333,0331,0337,",
    "0242:0220,0321,0336,0343,0333,0336,0350,0335,0342,0334,0334,0342,0335,0337,0304,0332,0337,",
    "01242:0333,0200,0336,0330,0332,0210,0242,0211,0333,0331,0337,",
    "0243:0220,0336,0331,0332,0336,0321,0343,0332,0350,0334,0336,0342,0335,0335,0342,0337,0334,0334,0335,0304,0332,0330,0330,0337,0337,0333,",
    "01243:0333,0200,0336,0330,0332,0210,0243,0211,0333,0331,0337,",
    "0244:0220,0336,0331,0333,0336,0321,0343,0333,0350,0336,0335,0342,0334,0334,0342,0335,0337,0304,0333,0330,0330,0337,0337,0332,",
    "01244:0333,0200,0336,0330,0332,0210,0244,0211,0333,0331,0337,",
    "0245:0210,0332,0332,0362,0335,0203,0203,0203,0203,0334,0203,0363,0332,0332,0331,0211,",
    "01245:0333,0200,0336,0330,0332,0336,0245,0337,0333,0331,0337,",
    "0246:0210,0332,0332,0335,0306,0336,0330,0335,0335,0335,0321,0362,0203,0335,0335,0203,0364,0331,0350,0335,0337,0366,0333,0333,0333,0333,0334,0334,0334,0334,0367,0335,0336,0342,0334,0334,0342,0330,0330,0330,0330,0335,0335,0335,0304,0337,0211,",
    "01246:0333,0200,0336,0330,0332,0336,0246,",
    "0247:0330,0332,0336,0332,0336,0221,0333,0333,0333,0222,0333,0333,0333,0223,0333,0333,0333,0225,0333,0331,0331,0331,0332,0332,0332,0332,0332,0332,0332,0332,0332,0332,0332,0332,0333,0333,0226,0331,0331,0331,0333,0333,0333,0333,0333,0333,0333,0333,0333,0333,0333,0333,0333,0330,0333,0330,0330,0333,0330,0331,0332,0332,0332,0332,0332,0332,0332,0332,0332,0332,0332,0332,0227,0333,0333,0333,0230,0333,0331,0331,0331,0331,0332,0332,0332,0330,0332,0332,0332,0332,0332,0332,0333,0333,0231,0333,0333,0333,0232,0331,0333,0330,0333,0333,0233,0333,0333,0333,0234,0330,0330,0332,0330,0332,0332,0337,0337,",
    "01247:0333,0200,0336,0330,0332,0220,0336,0247,0337,0331,0333,0337,"
  ]
}</json>-->    <line x1="8" y1="146" x2="8" y2="142" style="stroke:#000000;stroke-width:1" />
    <line x1="13" y1="146" x2="13" y2="142" style="stroke:#000000;stroke-width:1" />
    <line x1="17" y1="146" x2="17" y2="142" style="stroke:#000000;stroke-width:1" />
    <line x1="22" y1="146" x2="22" y2="142" style="stroke:#000000;stroke-width:1" />
    <line x1="27" y1="146" x2="27" y2="142" style="stroke:#000000;stroke-width:1" />
    <line x1="27" y1="146" x2="27" y2="137" style="stroke:#000000;stroke-width:1" />
    <line x1="31" y1="146" x2="31" y2="142" style="stroke:#000000;stroke-width:1" />
    <line x1="36" y1="146" x2="36" y2="142" style="stroke:#000000;stroke-width:1" />
    <line x1="41" y1="146" x2="41" y2="142" style="stroke:#000000;stroke-width:1" />
    <line x1="45" y1="146" x2="45" y2="142" style="stroke:#000000;stroke-width:1" />
    <line x1="50" y1="146" x2="50" y2="137" style="stroke:#000000;stroke-width:1" />
    <line x1="50" y1="146" x2="50" y2="100" style="stroke:#000000;stroke-width:1" />
    <line x1="54" y1="146" x2="54" y2="142" style="stroke:#000000;stroke-width:1" />
    <line x1="59" y1="146" x2="59" y2="142" style="stroke:#000000;stroke-width:1" />
    <line x1="64" y1="146" x2="64" y2="142" style="stroke:#000000;stroke-width:1" />
    <line x1="68" y1="146" x2="68" y2="142" style="stroke:#000000;stroke-width:1" />
    <line x1="73" y1="146" x2="73" y2="142" style="stroke:#000000;stroke-width:1" />
    <line x1="73" y1="146" x2="73" y2="137" style="stroke:#000000;stroke-width:1" />
    <line x1="78" y1="146" x2="78" y2="142" style="stroke:#000000;stroke-width:1" />
    <line x1="82" y1="146" x2="82" y2="142" style="stroke:#000000;stroke-width:1" />
    <line x1="87" y1="146" x2="87" y2="142" style="stroke:#000000;stroke-width:1" />
    <line x1="91" y1="146" x2="91" y2="142" style="stroke:#000000;stroke-width:1" />
    <line x1="96" y1="146" x2="96" y2="137" style="stroke:#000000;stroke-width:1" />
    <line x1="96" y1="146" x2="96" y2="100" style="stroke:#000000;stroke-width:1" />
    <line x1="101" y1="146" x2="101" y2="142" style="stroke:#000000;stroke-width:1" />
    <line x1="105" y1="146" x2="105" y2="142" style="stroke:#000000;stroke-width:1" />
    <line x1="110" y1="146" x2="110" y2="142" style="stroke:#000000;stroke-width:1" />
    <line x1="114" y1="146" x2="114" y2="142" style="stroke:#000000;stroke-width:1" />
    <line x1="119" y1="146" x2="119" y2="142" style="stroke:#000000;stroke-width:1" />
    <line x1="119" y1="146" x2="119" y2="137" style="stroke:#000000;stroke-width:1" />
    <line x1="124" y1="146" x2="124" y2="142" style="stroke:#000000;stroke-width:1" />
    <line x1="128" y1="146" x2="128" y2="142" style="stroke:#000000;stroke-width:1" />
    <line x1="133" y1="146" x2="133" y2="142" style="stroke:#000000;stroke-width:1" />
    <line x1="138" y1="146" x2="138" y2="142" style="stroke:#000000;stroke-width:1" />
    <line x1="142" y1="146" x2="142" y2="137" style="stroke:#000000;stroke-width:1" />
    <line x1="142" y1="146" x2="142" y2="100" style="stroke:#000000;stroke-width:1" />
    <line x1="147" y1="146" x2="147" y2="142" style="stroke:#000000;stroke-width:1" />
    <line x1="151" y1="146" x2="151" y2="142" style="stroke:#000000;stroke-width:1" />
    <line x1="156" y1="146" x2="156" y2="142" style="stroke:#000000;stroke-width:1" />
    <line x1="161" y1="146" x2="161" y2="142" style="stroke:#000000;stroke-width:1" />
    <line x1="165" y1="146" x2="165" y2="142" style="stroke:#000000;stroke-width:1" />
    <line x1="165" y1="146" x2="165" y2="137" style="stroke:#000000;stroke-width:1" />
    <line x1="170" y1="146" x2="170" y2="142" style="stroke:#000000;stroke-width:1" />
    <line x1="174" y1="146" x2="174" y2="142" style="stroke:#000000;stroke-width:1" />
    <line x1="179" y1="146" x2="179" y2="142" style="stroke:#000000;stroke-width:1" />
    <line x1="184" y1="146" x2="184" y2="142" style="stroke:#000000;stroke-width:1" />
    <line x1="188" y1="146" x2="188" y2="137" style="stroke:#000000;stroke-width:1" />
    <line x1="188" y1="146" x2="188" y2="100" style="stroke:#000000;stroke-width:1" />
    <line x1="193" y1="146" x2="193" y2="142" style="stroke:#000000;stroke-width:1" />
    <line x1="198" y1="146" x2="198" y2="142" style="stroke:#000000;stroke-width:1" />
    <line x1="202" y1="146" x2="202" y2="142" style="stroke:#000000;stroke-width:1" />
    <line x1="207" y1="146" x2="207" y2="142" style="stroke:#000000;stroke-width:1" />
    <line x1="211" y1="146" x2="211" y2="142" style="stroke:#000000;stroke-width:1" />
    <line x1="211" y1="146" x2="211" y2="137" style="stroke:#000000;stroke-width:1" />
    <line x1="216" y1="146" x2="216" y2="142" style="stroke:#000000;stroke-width:1" />
    <line x1="221" y1="146" x2="221" y2="142" style="stroke:#000000;stroke-width:1" />
    <line x1="225" y1="146" x2="225" y2="142" style="stroke:#000000;stroke-width:1" />
    <line x1="230" y1="146" x2="230" y2="142" style="stroke:#000000;stroke-width:1" />
    <line x1="235" y1="146" x2="235" y2="137" style="stroke:#000000;stroke-width:1" />
    <line x1="235" y1="146" x2="235" y2="100" style="stroke:#000000;stroke-width:1" />
    <line x1="239" y1="146" x2="239" y2="142" style="stroke:#000000;stroke-width:1" />
    <line x1="244" y1="146" x2="244" y2="142" style="stroke:#000000;stroke-width:1" />
    <line x1="248" y1="146" x2="248" y2="142" style="stroke:#000000;stroke-width:1" />
    <line x1="253" y1="146" x2="253" y2="142" style="stroke:#000000;stroke-width:1" />
    <line x1="258" y1="146" x2="258" y2="142" style="stroke:#000000;stroke-width:1" />
    <line x1="258" y1="146" x2="258" y2="137" style="stroke:#000000;stroke-width:1" />
    <line x1="262" y1="146" x2="262" y2="142" style="stroke:#000000;stroke-width:1" />
    <line x1="267" y1="146" x2="267" y2="142" style="stroke:#000000;stroke-width:1" />
    <line x1="271" y1="146" x2="271" y2="142" style="stroke:#000000;stroke-width:1" />
    <line x1="276" y1="146" x2="276" y2="142" style="stroke:#000000;stroke-width:1" />
    <line x1="281" y1="146" x2="281" y2="137" style="stroke:#000000;stroke-width:1" />
    <line x1="281" y1="146" x2="281" y2="100" style="stroke:#000000;stroke-width:1" />
    <line x1="285" y1="146" x2="285" y2="142" style="stroke:#000000;stroke-width:1" />
    <line x1="290" y1="146" x2="290" y2="142" style="stroke:#000000;stroke-width:1" />
    <line x1="295" y1="146" x2="295" y2="142" style="stroke:#000000;stroke-width:1" />
    <line x1="299" y1="146" x2="299" y2="142" style="stroke:#000000;stroke-width:1" />
    <line x1="304" y1="146" x2="304" y2="142" style="stroke:#000000;stroke-width:1" />
    <line x1="304" y1="146" x2="304" y2="137" style="stroke:#000000;stroke-width:1" />
    <line x1="308" y1="146" x2="308" y2="142" style="stroke:#000000;stroke-width:1" />
    <line x1="313" y1="146" x2="313" y2="142" style="stroke:#000000;stroke-width:1" />
    <line x1="318" y1="146" x2="318" y2="142" style="stroke:#000000;stroke-width:1" />
    <line x1="322" y1="146" x2="322" y2="142" style="stroke:#000000;stroke-width:1" />
    <line x1="327" y1="146" x2="327" y2="137" style="stroke:#000000;stroke-width:1" />
    <line x1="327" y1="146" x2="327" y2="100" style="stroke:#000000;stroke-width:1" />
    <line x1="332" y1="146" x2="332" y2="142" style="stroke:#000000;stroke-width:1" />
    <line x1="336" y1="146" x2="336" y2="142" style="stroke:#000000;stroke-width:1" />
    <line x1="341" y1="146" x2="341" y2="142" style="stroke:#000000;stroke-width:1" />
    <line x1="345" y1="146" x2="345" y2="142" style="stroke:#000000;stroke-width:1" />
    <line x1="350" y1="146" x2="350" y2="142" style="stroke:#000000;stroke-width:1" />
    <line x1="350" y1="146" x2="350" y2="137" style="stroke:#000000;stroke-width:1" />
    <line x1="355" y1="146" x2="355" y2="142" style="stroke:#000000;stroke-width:1" />
    <line x1="359" y1="146" x2="359" y2="142" style="stroke:#000000;stroke-width:1" />
    <line x1="364" y1="146" x2="364" y2="142" style="stroke:#000000;stroke-width:1" />
    <line x1="368" y1="146" x2="368" y2="142" style="stroke:#000000;stroke-width:1" />
    <line x1="373" y1="146" x2="373" y2="137" style="stroke:#000000;stroke-width:1" />
    <line x1="373" y1="146" x2="373" y2="100" style="stroke:#000000;stroke-width:1" />
    <line x1="378" y1="146" x2="378" y2="142" style="stroke:#000000;stroke-width:1" />
    <line x1="382" y1="146" x2="382" y2="142" style="stroke:#000000;stroke-width:1" />
    <line x1="387" y1="146" x2="387" y2="142" style="stroke:#000000;stroke-width:1" />
    <line x1="392" y1="146" x2="392" y2="142" style="stroke:#000000;stroke-width:1" />
    <line x1="396" y1="146" x2="396" y2="142" style="stroke:#000000;stroke-width:1" />
    <line x1="396" y1="146" x2="396" y2="137" style="stroke:#000000;stroke-width:1" />
    <line x1="401" y1="146" x2="401" y2="142" style="stroke:#000000;stroke-width:1" />
    <line x1="405" y1="146" x2="405" y2="142" style="stroke:#000000;stroke-width:1" />
    <line x1="410" y1="146" x2="410" y2="142" style="stroke:#000000;stroke-width:1" />
    <line x1="415" y1="146" x2="415" y2="142" style="stroke:#000000;stroke-width:1" />
    <line x1="419" y1="146" x2="419" y2="137" style="stroke:#000000;stroke-width:1" />
    <line x1="419" y1="146" x2="419" y2="100" style="stroke:#000000;stroke-width:1" />
    <line x1="424" y1="146" x2="424" y2="142" style="stroke:#000000;stroke-width:1" />
    <line x1="429" y1="146" x2="429" y2="142" style="stroke:#000000;stroke-width:1" />
    <line x1="433" y1="146" x2="433" y2="142" style="stroke:#000000;stroke-width:1" />
    <line x1="438" y1="146" x2="438" y2="142" style="stroke:#000000;stroke-width:1" />
    <line x1="442" y1="146" x2="442" y2="142" style="stroke:#000000;stroke-width:1" />
    <line x1="442" y1="146" x2="442" y2="137" style="stroke:#000000;stroke-width:1" />
    <line x1="447" y1="146" x2="447" y2="142" style="stroke:#000000;stroke-width:1" />
    <line x1="452" y1="146" x2="452" y2="142" style="stroke:#000000;stroke-width:1" />
    <line x1="456" y1="146" x2="456" y2="142" style="stroke:#000000;stroke-width:1" />
    <line x1="461" y1="146" x2="461" y2="142" style="stroke:#000000;stroke-width:1" />
    <line x1="465" y1="146" x2="465" y2="137" style="stroke:#000000;stroke-width:1" />
    <line x1="465" y1="146" x2="465" y2="100" style="stroke:#000000;stroke-width:1" />
    <line x1="470" y1="146" x2="470" y2="142" style="stroke:#000000;stroke-width:1" />
    <line x1="475" y1="146" x2="475" y2="142" style="stroke:#000000;stroke-width:1" />
    <line x1="479" y1="146" x2="479" y2="142" style="stroke:#000000;stroke-width:1" />
    <line x1="484" y1="146" x2="484" y2="142" style="stroke:#000000;stroke-width:1" />
    <line x1="489" y1="146" x2="489" y2="142" style="stroke:#000000;stroke-width:1" />
    <line x1="489" y1="146" x2="489" y2="137" style="stroke:#000000;stroke-width:1" />
    <line x1="493" y1="146" x2="493" y2="142" style="stroke:#000000;stroke-width:1" />
    <line x1="498" y1="146" x2="498" y2="142" style="stroke:#000000;stroke-width:1" />
    <line x1="502" y1="146" x2="502" y2="142" style="stroke:#000000;stroke-width:1" />
    <line x1="507" y1="146" x2="507" y2="142" style="stroke:#000000;stroke-width:1" />
    <line x1="512" y1="146" x2="512" y2="137" style="stroke:#000000;stroke-width:1" />
    <line x1="512" y1="146" x2="512" y2="100" style="stroke:#000000;stroke-width:1" />
    <line x1="516" y1="146" x2="516" y2="142" style="stroke:#000000;stroke-width:1" />
    <line x1="521" y1="146" x2="521" y2="142" style="stroke:#000000;stroke-width:1" />
    <line x1="526" y1="146" x2="526" y2="142" style="stroke:#000000;stroke-width:1" />
    <line x1="530" y1="146" x2="530" y2="142" style="stroke:#000000;stroke-width:1" />
    <line x1="535" y1="146" x2="535" y2="142" style="stroke:#000000;stroke-width:1" />
    <line x1="535" y1="146" x2="535" y2="137" style="stroke:#000000;stroke-width:1" />
    <line x1="539" y1="146" x2="539" y2="142" style="stroke:#000000;stroke-width:1" />
    <line x1="544" y1="146" x2="544" y2="142" style="stroke:#000000;stroke-width:1" />
    <line x1="549" y1="146" x2="549" y2="142" style="stroke:#000000;stroke-width:1" />
    <line x1="553" y1="146" x2="553" y2="142" style="stroke:#000000;stroke-width:1" />
    <line x1="558" y1="146" x2="558" y2="137" style="stroke:#000000;stroke-width:1" />
    <line x1="558" y1="146" x2="558" y2="100" style="stroke:#000000;stroke-width:1" />
    <line x1="562" y1="146" x2="562" y2="142" style="stroke:#000000;stroke-width:1" />
    <line x1="567" y1="146" x2="567" y2="142" style="stroke:#000000;stroke-width:1" />
    <line x1="572" y1="146" x2="572" y2="142" style="stroke:#000000;stroke-width:1" />
    <line x1="576" y1="146" x2="576" y2="142" style="stroke:#000000;stroke-width:1" />
    <line x1="581" y1="146" x2="581" y2="142" style="stroke:#000000;stroke-width:1" />
    <line x1="581" y1="146" x2="581" y2="137" style="stroke:#000000;stroke-width:1" />
    <line x1="586" y1="146" x2="586" y2="142" style="stroke:#000000;stroke-width:1" />
    <line x1="590" y1="146" x2="590" y2="142" style="stroke:#000000;stroke-width:1" />
    <line x1="595" y1="146" x2="595" y2="142" style="stroke:#000000;stroke-width:1" />
    <line x1="599" y1="146" x2="599" y2="142" style="stroke:#000000;stroke-width:1" />
    <line x1="604" y1="146" x2="604" y2="137" style="stroke:#000000;stroke-width:1" />
    <line x1="604" y1="146" x2="604" y2="100" style="stroke:#000000;stroke-width:1" />
    <line x1="609" y1="146" x2="609" y2="142" style="stroke:#000000;stroke-width:1" />
    <line x1="613" y1="146" x2="613" y2="142" style="stroke:#000000;stroke-width:1" />
    <line x1="618" y1="146" x2="618" y2="142" style="stroke:#000000;stroke-width:1" />
    <line x1="622" y1="146" x2="622" y2="142" style="stroke:#000000;stroke-width:1" />
    <line x1="627" y1="146" x2="627" y2="142" style="stroke:#000000;stroke-width:1" />
    <line x1="627" y1="146" x2="627" y2="137" style="stroke:#000000;stroke-width:1" />
    <line x1="632" y1="146" x2="632" y2="142" style="stroke:#000000;stroke-width:1" />
    <line x1="636" y1="146" x2="636" y2="142" style="stroke:#000000;stroke-width:1" />
    <line x1="641" y1="146" x2="641" y2="142" style="stroke:#000000;stroke-width:1" />
    <line x1="646" y1="146" x2="646" y2="142" style="stroke:#000000;stroke-width:1" />
    <line x1="650" y1="146" x2="650" y2="137" style="stroke:#000000;stroke-width:1" />
    <line x1="650" y1="146" x2="650" y2="100" style="stroke:#000000;stroke-width:1" />
    <line x1="655" y1="146" x2="655" y2="142" style="stroke:#000000;stroke-width:1" />
    <line x1="659" y1="146" x2="659" y2="142" style="stroke:#000000;stroke-width:1" />
    <line x1="664" y1="146" x2="664" y2="142" style="stroke:#000000;stroke-width:1" />
    <line x1="669" y1="146" x2="669" y2="142" style="stroke:#000000;stroke-width:1" />
    <line x1="673" y1="146" x2="673" y2="142" style="stroke:#000000;stroke-width:1" />
    <line x1="673" y1="146" x2="673" y2="137" style="stroke:#000000;stroke-width:1" />
    <line x1="678" y1="146" x2="678" y2="142" style="stroke:#000000;stroke-width:1" />
    <line x1="683" y1="146" x2="683" y2="142" style="stroke:#000000;stroke-width:1" />
    <line x1="687" y1="146" x2="687" y2="142" style="stroke:#000000;stroke-width:1" />
    <line x1="692" y1="146" x2="692" y2="142" style="stroke:#000000;stroke-width:1" />
    <line x1="696" y1="146" x2="696" y2="137" style="stroke:#000000;stroke-width:1" />
    <line x1="696" y1="146" x2="696" y2="100" style="stroke:#000000;stroke-width:1" />
    <line x1="696" y1="142" x2="692" y2="142" style="stroke:#000000;stroke-width:1" />
    <line x1="696" y1="137" x2="692" y2="137" style="stroke:#000000;stroke-width:1" />
    <line x1="696" y1="132" x2="692" y2="132" style="stroke:#000000;stroke-width:1" />
    <line x1="696" y1="128" x2="692" y2="128" style="stroke:#000000;stroke-width:1" />
    <line x1="696" y1="123" x2="692" y2="123" style="stroke:#000000;stroke-width:1" />
    <line x1="696" y1="123" x2="687" y2="123" style="stroke:#000000;stroke-width:1" />
    <line x1="696" y1="118" x2="692" y2="118" style="stroke:#000000;stroke-width:1" />
    <line x1="696" y1="114" x2="692" y2="114" style="stroke:#000000;stroke-width:1" />
    <line x1="696" y1="109" x2="692" y2="109" style="stroke:#000000;stroke-width:1" />
    <line x1="696" y1="105" x2="692" y2="105" style="stroke:#000000;stroke-width:1" />
    <line x1="696" y1="100" x2="687" y2="100" style="stroke:#000000;stroke-width:1" />
    <line x1="696" y1="100" x2="650" y2="100" style="stroke:#000000;stroke-width:1" />
    <line x1="696" y1="95" x2="692" y2="95" style="stroke:#000000;stroke-width:1" />
    <line x1="696" y1="91" x2="692" y2="91" style="stroke:#000000;stroke-width:1" />
    <line x1="696" y1="86" x2="692" y2="86" style="stroke:#000000;stroke-width:1" />
    <line x1="696" y1="82" x2="692" y2="82" style="stroke:#000000;stroke-width:1" />
    <line x1="696" y1="77" x2="692" y2="77" style="stroke:#000000;stroke-width:1" />
    <line x1="696" y1="77" x2="687" y2="77" style="stroke:#000000;stroke-width:1" />
    <line x1="696" y1="72" x2="692" y2="72" style="stroke:#000000;stroke-width:1" />
    <line x1="696" y1="68" x2="692" y2="68" style="stroke:#000000;stroke-width:1" />
    <line x1="696" y1="63" x2="692" y2="63" style="stroke:#000000;stroke-width:1" />
    <line x1="696" y1="58" x2="692" y2="58" style="stroke:#000000;stroke-width:1" />
    <line x1="696" y1="54" x2="687" y2="54" style="stroke:#000000;stroke-width:1" />
    <line x1="696" y1="54" x2="650" y2="54" style="stroke:#000000;stroke-width:1" />
    <line x1="692" y1="54" x2="692" y2="58" style="stroke:#000000;stroke-width:1" />
    <line x1="687" y1="54" x2="687" y2="58" style="stroke:#000000;stroke-width:1" />
    <line x1="683" y1="54" x2="683" y2="58" style="stroke:#000000;stroke-width:1" />
    <line x1="678" y1="54" x2="678" y2="58" style="stroke:#000000;stroke-width:1" />
    <line x1="673" y1="54" x2="673" y2="58" style="stroke:#000000;stroke-width:1" />
    <line x1="673" y1="54" x2="673" y2="63" style="stroke:#000000;stroke-width:1" />
    <line x1="669" y1="54" x2="669" y2="58" style="stroke:#000000;stroke-width:1" />
    <line x1="664" y1="54" x2="664" y2="58" style="stroke:#000000;stroke-width:1" />
    <line x1="659" y1="54" x2="659" y2="58" style="stroke:#000000;stroke-width:1" />
    <line x1="655" y1="54" x2="655" y2="58" style="stroke:#000000;stroke-width:1" />
    <line x1="650" y1="54" x2="650" y2="63" style="stroke:#000000;stroke-width:1" />
    <line x1="650" y1="54" x2="650" y2="100" style="stroke:#000000;stroke-width:1" />
    <line x1="646" y1="54" x2="646" y2="58" style="stroke:#000000;stroke-width:1" />
    <line x1="641" y1="54" x2="641" y2="58" style="stroke:#000000;stroke-width:1" />
    <line x1="636" y1="54" x2="636" y2="58" style="stroke:#000000;stroke-width:1" />
    <line x1="632" y1="54" x2="632" y2="58" style="stroke:#000000;stroke-width:1" />
    <line x1="627" y1="54" x2="627" y2="58" style="stroke:#000000;stroke-width:1" />
    <line x1="627" y1="54" x2="627" y2="63" style="stroke:#000000;stroke-width:1" />
    <line x1="622" y1="54" x2="622" y2="58" style="stroke:#000000;stroke-width:1" />
    <line x1="618" y1="54" x2="618" y2="58" style="stroke:#000000;stroke-width:1" />
    <line x1="613" y1="54" x2="613" y2="58" style="stroke:#000000;stroke-width:1" />
    <line x1="609" y1="54" x2="609" y2="58" style="stroke:#000000;stroke-width:1" />
    <line x1="604" y1="54" x2="604" y2="63" style="stroke:#000000;stroke-width:1" />
    <line x1="604" y1="54" x2="604" y2="100" style="stroke:#000000;stroke-width:1" />
    <line x1="599" y1="54" x2="599" y2="58" style="stroke:#000000;stroke-width:1" />
    <line x1="595" y1="54" x2="595" y2="58" style="stroke:#000000;stroke-width:1" />
    <line x1="590" y1="54" x2="590" y2="58" style="stroke:#000000;stroke-width:1" />
    <line x1="586" y1="54" x2="586" y2="58" style="stroke:#000000;stroke-width:1" />
    <line x1="581" y1="54" x2="581" y2="58" style="stroke:#000000;stroke-width:1" />
    <line x1="581" y1="54" x2="581" y2="63" style="stroke:#000000;stroke-width:1" />
    <line x1="576" y1="54" x2="576" y2="58" style="stroke:#000000;stroke-width:1" />
    <line x1="572" y1="54" x2="572" y2="58" style="stroke:#000000;stroke-width:1" />
    <line x1="567" y1="54" x2="567" y2="58" style="stroke:#000000;stroke-width:1" />
    <line x1="562" y1="54" x2="562" y2="58" style="stroke:#000000;stroke-width:1" />
    <line x1="558" y1="54" x2="558" y2="63" style="stroke:#000000;stroke-width:1" />
    <line x1="558" y1="54" x2="558" y2="100" style="stroke:#000000;stroke-width:1" />
    <line x1="553" y1="54" x2="553" y2="58" style="stroke:#000000;stroke-width:1" />
    <line x1="549" y1="54" x2="549" y2="58" style="stroke:#000000;stroke-width:1" />
    <line x1="544" y1="54" x2="544" y2="58" style="stroke:#000000;stroke-width:1" />
    <line x1="539" y1="54" x2="539" y2="58" style="stroke:#000000;stroke-width:1" />
    <line x1="535" y1="54" x2="535" y2="58" style="stroke:#000000;stroke-width:1" />
    <line x1="535" y1="54" x2="535" y2="63" style="stroke:#000000;stroke-width:1" />
    <line x1="530" y1="54" x2="530" y2="58" style="stroke:#000000;stroke-width:1" />
    <line x1="526" y1="54" x2="526" y2="58" style="stroke:#000000;stroke-width:1" />
    <line x1="521" y1="54" x2="521" y2="58" style="stroke:#000000;stroke-width:1" />
    <line x1="516" y1="54" x2="516" y2="58" style="stroke:#000000;stroke-width:1" />
    <line x1="512" y1="54" x2="512" y2="63" style="stroke:#000000;stroke-width:1" />
    <line x1="512" y1="54" x2="512" y2="100" style="stroke:#000000;stroke-width:1" />
    <line x1="507" y1="54" x2="507" y2="58" style="stroke:#000000;stroke-width:1" />
    <line x1="502" y1="54" x2="502" y2="58" style="stroke:#000000;stroke-width:1" />
    <line x1="498" y1="54" x2="498" y2="58" style="stroke:#000000;stroke-width:1" />
    <line x1="493" y1="54" x2="493" y2="58" style="stroke:#000000;stroke-width:1" />
    <line x1="489" y1="54" x2="489" y2="58" style="stroke:#000000;stroke-width:1" />
    <line x1="489" y1="54" x2="489" y2="63" style="stroke:#000000;stroke-width:1" />
    <line x1="484" y1="54" x2="484" y2="58" style="stroke:#000000;stroke-width:1" />
    <line x1="479" y1="54" x2="479" y2="58" style="stroke:#000000;stroke-width:1" />
    <line x1="475" y1="54" x2="475" y2="58" style="stroke:#000000;stroke-width:1" />
    <line x1="470" y1="54" x2="470" y2="58" style="stroke:#000000;stroke-width:1" />
    <line x1="465" y1="54" x2="465" y2="63" style="stroke:#000000;stroke-width:1" />
    <line x1="465" y1="54" x2="465" y2="100" style="stroke:#000000;stroke-width:1" />
    <line x1="461" y1="54" x2="461" y2="58" style="stroke:#000000;stroke-width:1" />
    <line x1="456" y1="54" x2="456" y2="58" style="stroke:#000000;stroke-width:1" />
    <line x1="452" y1="54" x2="452" y2="58" style="stroke:#000000;stroke-width:1" />
    <line x1="447" y1="54" x2="447" y2="58" style="stroke:#000000;stroke-width:1" />
    <line x1="442" y1="54" x2="442" y2="58" style="stroke:#000000;stroke-width:1" />
    <line x1="442" y1="54" x2="442" y2="63" style="stroke:#000000;stroke-width:1" />
    <line x1="438" y1="54" x2="438" y2="58" style="stroke:#000000;stroke-width:1" />
    <line x1="433" y1="54" x2="433" y2="58" style="stroke:#000000;stroke-width:1" />
    <line x1="429" y1="54" x2="429" y2="58" style="stroke:#000000;stroke-width:1" />
    <line x1="424" y1="54" x2="424" y2="58" style="stroke:#000000;stroke-width:1" />
    <line x1="419" y1="54" x2="419" y2="63" style="stroke:#000000;stroke-width:1" />
    <line x1="419" y1="54" x2="419" y2="100" style="stroke:#000000;stroke-width:1" />
    <line x1="415" y1="54" x2="415" y2="58" style="stroke:#000000;stroke-width:1" />
    <line x1="410" y1="54" x2="410" y2="58" style="stroke:#000000;stroke-width:1" />
    <line x1="405" y1="54" x2="405" y2="58" style="stroke:#000000;stroke-width:1" />
    <line x1="401" y1="54" x2="401" y2="58" style="stroke:#000000;stroke-width:1" />
    <line x1="396" y1="54" x2="396" y2="58" style="stroke:#000000;stroke-width:1" />
    <line x1="396" y1="54" x2="396" y2="63" style="stroke:#000000;stroke-width:1" />
    <line x1="392" y1="54" x2="392" y2="58" style="stroke:#000000;stroke-width:1" />
    <line x1="387" y1="54" x2="387" y2="58" style="stroke:#000000;stroke-width:1" />
    <line x1="382" y1="54" x2="382" y2="58" style="stroke:#000000;stroke-width:1" />
    <line x1="378" y1="54" x2="378" y2="58" style="stroke:#000000;stroke-width:1" />
    <line x1="373" y1="54" x2="373" y2="63" style="stroke:#000000;stroke-width:1" />
    <line x1="373" y1="54" x2="373" y2="100" style="stroke:#000000;stroke-width:1" />
    <line x1="368" y1="54" x2="368" y2="58" style="stroke:#000000;stroke-width:1" />
    <line x1="364" y1="54" x2="364" y2="58" style="stroke:#000000;stroke-width:1" />
    <line x1="359" y1="54" x2="359" y2="58" style="stroke:#000000;stroke-width:1" />
    <line x1="355" y1="54" x2="355" y2="58" style="stroke:#000000;stroke-width:1" />
    <line x1="350" y1="54" x2="350" y2="58" style="stroke:#000000;stroke-width:1" />
    <line x1="350" y1="54" x2="350" y2="63" style="stroke:#000000;stroke-width:1" />
    <line x1="345" y1="54" x2="345" y2="58" style="stroke:#000000;stroke-width:1" />
    <line x1="341" y1="54" x2="341" y2="58" style="stroke:#000000;stroke-width:1" />
    <line x1="336" y1="54" x2="336" y2="58" style="stroke:#000000;stroke-width:1" />
    <line x1="332" y1="54" x2="332" y2="58" style="stroke:#000000;stroke-width:1" />
    <line x1="327" y1="54" x2="327" y2="63" style="stroke:#000000;stroke-width:1" />
    <line x1="327" y1="54" x2="327" y2="100" style="stroke:#000000;stroke-width:1" />
    <line x1="322" y1="54" x2="322" y2="58" style="stroke:#000000;stroke-width:1" />
    <line x1="318" y1="54" x2="318" y2="58" style="stroke:#000000;stroke-width:1" />
    <line x1="313" y1="54" x2="313" y2="58" style="stroke:#000000;stroke-width:1" />
    <line x1="308" y1="54" x2="308" y2="58" style="stroke:#000000;stroke-width:1" />
    <line x1="304" y1="54" x2="304" y2="58" style="stroke:#000000;stroke-width:1" />
    <line x1="304" y1="54" x2="304" y2="63" style="stroke:#000000;stroke-width:1" />
    <line x1="299" y1="54" x2="299" y2="58" style="stroke:#000000;stroke-width:1" />
    <line x1="295" y1="54" x2="295" y2="58" style="stroke:#000000;stroke-width:1" />
    <line x1="290" y1="54" x2="290" y2="58" style="stroke:#000000;stroke-width:1" />
    <line x1="285" y1="54" x2="285" y2="58" style="stroke:#000000;stroke-width:1" />
    <line x1="281" y1="54" x2="281" y2="63" style="stroke:#000000;stroke-width:1" />
    <line x1="281" y1="54" x2="281" y2="100" style="stroke:#000000;stroke-width:1" />
    <line x1="276" y1="54" x2="276" y2="58" style="stroke:#000000;stroke-width:1" />
    <line x1="271" y1="54" x2="271" y2="58" style="stroke:#000000;stroke-width:1" />
    <line x1="267" y1="54" x2="267" y2="58" style="stroke:#000000;stroke-width:1" />
    <line x1="262" y1="54" x2="262" y2="58" style="stroke:#000000;stroke-width:1" />
    <line x1="258" y1="54" x2="258" y2="58" style="stroke:#000000;stroke-width:1" />
    <line x1="258" y1="54" x2="258" y2="63" style="stroke:#000000;stroke-width:1" />
    <line x1="253" y1="54" x2="253" y2="58" style="stroke:#000000;stroke-width:1" />
    <line x1="248" y1="54" x2="248" y2="58" style="stroke:#000000;stroke-width:1" />
    <line x1="244" y1="54" x2="244" y2="58" style="stroke:#000000;stroke-width:1" />
    <line x1="239" y1="54" x2="239" y2="58" style="stroke:#000000;stroke-width:1" />
    <line x1="235" y1="54" x2="235" y2="63" style="stroke:#000000;stroke-width:1" />
    <line x1="235" y1="54" x2="235" y2="100" style="stroke:#000000;stroke-width:1" />
    <line x1="230" y1="54" x2="230" y2="58" style="stroke:#000000;stroke-width:1" />
    <line x1="225" y1="54" x2="225" y2="58" style="stroke:#000000;stroke-width:1" />
    <line x1="221" y1="54" x2="221" y2="58" style="stroke:#000000;stroke-width:1" />
    <line x1="216" y1="54" x2="216" y2="58" style="stroke:#000000;stroke-width:1" />
    <line x1="211" y1="54" x2="211" y2="58" style="stroke:#000000;stroke-width:1" />
    <line x1="211" y1="54" x2="211" y2="63" style="stroke:#000000;stroke-width:1" />
    <line x1="207" y1="54" x2="207" y2="58" style="stroke:#000000;stroke-width:1" />
    <line x1="202" y1="54" x2="202" y2="58" style="stroke:#000000;stroke-width:1" />
    <line x1="198" y1="54" x2="198" y2="58" style="stroke:#000000;stroke-width:1" />
    <line x1="193" y1="54" x2="193" y2="58" style="stroke:#000000;stroke-width:1" />
    <line x1="188" y1="54" x2="188" y2="63" style="stroke:#000000;stroke-width:1" />
    <line x1="188" y1="54" x2="188" y2="100" style="stroke:#000000;stroke-width:1" />
    <line x1="184" y1="54" x2="184" y2="58" style="stroke:#000000;stroke-width:1" />
    <line x1="179" y1="54" x2="179" y2="58" style="stroke:#000000;stroke-width:1" />
    <line x1="174" y1="54" x2="174" y2="58" style="stroke:#000000;stroke-width:1" />
    <line x1="170" y1="54" x2="170" y2="58" style="stroke:#000000;stroke-width:1" />
    <line x1="165" y1="54" x2="165" y2="58" style="stroke:#000000;stroke-width:1" />
    <line x1="165" y1="54" x2="165" y2="63" style="stroke:#000000;stroke-width:1" />
    <line x1="161" y1="54" x2="161" y2="58" style="stroke:#000000;stroke-width:1" />
    <line x1="156" y1="54" x2="156" y2="58" style="stroke:#000000;stroke-width:1" />
    <line x1="151" y1="54" x2="151" y2="58" style="stroke:#000000;stroke-width:1" />
    <line x1="147" y1="54" x2="147" y2="58" style="stroke:#000000;stroke-width:1" />
    <line x1="142" y1="54" x2="142" y2="63" style="stroke:#000000;stroke-width:1" />
    <line x1="142" y1="54" x2="142" y2="100" style="stroke:#000000;stroke-width:1" />
    <line x1="138" y1="54" x2="138" y2="58" style="stroke:#000000;stroke-width:1" />
    <line x1="133" y1="54" x2="133" y2="58" style="stroke:#000000;stroke-width:1" />
    <line x1="128" y1="54" x2="128" y2="58" style="stroke:#000000;stroke-width:1" />
    <line x1="124" y1="54" x2="124" y2="58" style="stroke:#000000;stroke-width:1" />
    <line x1="119" y1="54" x2="119" y2="58" style="stroke:#000000;stroke-width:1" />
    <line x1="119" y1="54" x2="119" y2="63" style="stroke:#000000;stroke-width:1" />
    <line x1="114" y1="54" x2="114" y2="58" style="stroke:#000000;stroke-width:1" />
    <line x1="110" y1="54" x2="110" y2="58" style="stroke:#000000;stroke-width:1" />
    <line x1="105" y1="54" x2="105" y2="58" style="stroke:#000000;stroke-width:1" />
    <line x1="101" y1="54" x2="101" y2="58" style="stroke:#000000;stroke-width:1" />
    <line x1="96" y1="54" x2="96" y2="63" style="stroke:#000000;stroke-width:1" />
    <line x1="96" y1="54" x2="96" y2="100" style="stroke:#000000;stroke-width:1" />
    <line x1="91" y1="54" x2="91" y2="58" style="stroke:#000000;stroke-width:1" />
    <line x1="87" y1="54" x2="87" y2="58" style="stroke:#000000;stroke-width:1" />
    <line x1="82" y1="54" x2="82" y2="58" style="stroke:#000000;stroke-width:1" />
    <line x1="78" y1="54" x2="78" y2="58" style="stroke:#000000;stroke-width:1" />
    <line x1="73" y1="54" x2="73" y2="58" style="stroke:#000000;stroke-width:1" />
    <line x1="73" y1="54" x2="73" y2="63" style="stroke:#000000;stroke-width:1" />
    <line x1="68" y1="54" x2="68" y2="58" style="stroke:#000000;stroke-width:1" />
    <line x1="64" y1="54" x2="64" y2="58" style="stroke:#000000;stroke-width:1" />
    <line x1="59" y1="54" x2="59" y2="58" style="stroke:#000000;stroke-width:1" />
    <line x1="54" y1="54" x2="54" y2="58" style="stroke:#000000;stroke-width:1" />
    <line x1="50" y1="54" x2="50" y2="63" style="stroke:#000000;stroke-width:1" />
    <line x1="50" y1="54" x2="50" y2="100" style="stroke:#000000;stroke-width:1" />
    <line x1="45" y1="54" x2="45" y2="58" style="stroke:#000000;stroke-width:1" />
    <line x1="41" y1="54" x2="41" y2="58" style="stroke:#000000;stroke-width:1" />
    <line x1="36" y1="54" x2="36" y2="58" style="stroke:#000000;stroke-width:1" />
    <line x1="31" y1="54" x2="31" y2="58" style="stroke:#000000;stroke-width:1" />
    <line x1="27" y1="54" x2="27" y2="58" style="stroke:#000000;stroke-width:1" />
    <line x1="27" y1="54" x2="27" y2="63" style="stroke:#000000;stroke-width:1" />
    <line x1="22" y1="54" x2="22" y2="58" style="stroke:#000000;stroke-width:1" />
    <line x1="17" y1="54" x2="17" y2="58" style="stroke:#000000;stroke-width:1" />
    <line x1="13" y1="54" x2="13" y2="58" style="stroke:#000000;stroke-width:1" />
    <line x1="8" y1="54" x2="8" y2="58" style="stroke:#000000;stroke-width:1" />
    <line x1="4" y1="54" x2="4" y2="63" style="stroke:#000000;stroke-width:1" />
    <line x1="4" y1="54" x2="4" y2="100" style="stroke:#000000;stroke-width:1" />
    <line x1="4" y1="58" x2="8" y2="58" style="stroke:#000000;stroke-width:1" />
    <line x1="4" y1="63" x2="8" y2="63" style="stroke:#000000;stroke-width:1" />
    <line x1="4" y1="68" x2="8" y2="68" style="stroke:#000000;stroke-width:1" />
    <line x1="4" y1="72" x2="8" y2="72" style="stroke:#000000;stroke-width:1" />
    <line x1="4" y1="77" x2="8" y2="77" style="stroke:#000000;stroke-width:1" />
    <line x1="4" y1="77" x2="13" y2="77" style="stroke:#000000;stroke-width:1" />
    <line x1="4" y1="82" x2="8" y2="82" style="stroke:#000000;stroke-width:1" />
    <line x1="4" y1="86" x2="8" y2="86" style="stroke:#000000;stroke-width:1" />
    <line x1="4" y1="91" x2="8" y2="91" style="stroke:#000000;stroke-width:1" />
    <line x1="4" y1="95" x2="8" y2="95" style="stroke:#000000;stroke-width:1" />
    <line x1="4" y1="100" x2="13" y2="100" style="stroke:#000000;stroke-width:1" />
    <line x1="4" y1="100" x2="50" y2="100" style="stroke:#000000;stroke-width:1" />
    <line x1="4" y1="105" x2="8" y2="105" style="stroke:#000000;stroke-width:1" />
    <line x1="4" y1="109" x2="8" y2="109" style="stroke:#000000;stroke-width:1" />
    <line x1="4" y1="114" x2="8" y2="114" style="stroke:#000000;stroke-width:1" />
    <line x1="4" y1="118" x2="8" y2="118" style="stroke:#000000;stroke-width:1" />
    <line x1="4" y1="123" x2="8" y2="123" style="stroke:#000000;stroke-width:1" />
    <line x1="4" y1="123" x2="13" y2="123" style="stroke:#000000;stroke-width:1" />
    <line x1="4" y1="128" x2="8" y2="128" style="stroke:#000000;stroke-width:1" />
    <line x1="4" y1="132" x2="8" y2="132" style="stroke:#000000;stroke-width:1" />
    <line x1="4" y1="137" x2="8" y2="137" style="stroke:#000000;stroke-width:1" />
    <line x1="4" y1="142" x2="8" y2="142" style="stroke:#000000;stroke-width:1" />
    <line x1="4" y1="146" x2="13" y2="146" style="stroke:#000000;stroke-width:1" />
    <line x1="4" y1="146" x2="50" y2="146" style="stroke:#000000;stroke-width:1" />
    <line x1="50" y1="100" x2="96" y2="100" style="stroke:#000000;stroke-width:1" />
    <line x1="96" y1="100" x2="142" y2="100" style="stroke:#000000;stroke-width:1" />
    <line x1="142" y1="100" x2="188" y2="100" style="stroke:#000000;stroke-width:1" />
    <line x1="188" y1="100" x2="235" y2="100" style="stroke:#000000;stroke-width:1" />
    <line x1="235" y1="100" x2="281" y2="100" style="stroke:#000000;stroke-width:1" />
    <line x1="281" y1="100" x2="327" y2="100" style="stroke:#000000;stroke-width:1" />
    <line x1="327" y1="100" x2="373" y2="100" style="stroke:#000000;stroke-width:1" />
    <line x1="373" y1="100" x2="419" y2="100" style="stroke:#000000;stroke-width:1" />
    <line x1="419" y1="100" x2="465" y2="100" style="stroke:#000000;stroke-width:1" />
    <line x1="465" y1="100" x2="512" y2="100" style="stroke:#000000;stroke-width:1" />
    <line x1="512" y1="100" x2="558" y2="100" style="stroke:#000000;stroke-width:1" />
    <line x1="558" y1="100" x2="604" y2="100" style="stroke:#000000;stroke-width:1" />
    <line x1="604" y1="100" x2="650" y2="100" style="stroke:#000000;stroke-width:1" />
    <circle cx="465" cy = "100" r = "2.886514415047724" stroke = "#000000" stroke-width = "1" fill = "#000000" />
    <circle cx="235" cy = "100" r = "2.886514415047724" stroke = "#000000" stroke-width = "1" fill = "#000000" />
	<path d = "M4 146 L4 100 L4 54 L50 54 L96 54 L142 54 L188 54 L235 54 L281 54 L327 54 L373 54 L419 54 L465 54 L512 54 L558 54 L604 54 L650 54 L696 54 L696 100 L696 146 L650 146 L604 146 L558 146 L512 146 L465 146 L419 146 L373 146 L327 146 L281 146 L235 146 L188 146 L142 146 L96 146 L50 146 L4 146 Z" stroke = "#ff0000" stroke-width = "1" fill = "none" /></svg>